{"glyphs":{" ":{"ha":694,"x_min":0,"x_max":0,"o":""},"A":{"ha":1158,"x_min":26,"x_max":1132,"o":"m 1132 564 q 1056 376 1132 451 q 868 297 981 300 q 774 92 849 174 q 568 1 690 1 q 400 86 476 1 q 324 264 324 171 q 310 296 324 289 l 283 294 q 103 372 181 289 q 26 563 26 456 q 108 759 26 676 q 306 838 190 842 q 392 1026 342 967 q 578 1111 460 1111 q 773 1035 689 1111 q 856 847 857 958 q 1132 564 1132 796 m 867 721 q 757 685 815 721 q 704 742 736 701 q 738 849 738 790 q 692 949 738 906 q 589 993 647 993 q 476 948 522 993 q 429 836 429 903 q 442 786 429 814 q 461 736 458 744 l 406 685 q 361 701 399 685 q 292 718 324 718 q 187 671 231 718 q 143 564 143 624 q 188 456 143 501 q 296 410 233 410 q 403 435 344 410 q 431 406 407 429 q 450 372 449 389 q 429 290 429 338 q 479 174 429 222 q 597 125 529 125 q 705 174 660 125 q 750 285 750 222 q 717 389 750 344 q 760 446 715 410 q 864 413 821 413 q 972 458 929 413 q 1015 571 1015 504 q 970 675 1015 629 q 867 721 925 721 m 590 460 q 522 486 551 460 q 493 550 493 513 q 590 657 493 657 q 659 628 632 657 q 686 558 686 600 q 658 489 686 518 q 590 460 631 460 z "},"B":{"ha":1189,"x_min":28,"x_max":1160,"o":"m 1156 0 l 28 6 l 33 1111 l 1160 1106 l 1156 0 m 1115 526 q 1115 597 1117 550 l 1108 597 q 980 656 1083 597 q 856 738 876 715 l 863 764 q 943 775 890 775 q 985 774 958 775 q 1024 772 1013 772 q 1078 783 1067 772 q 1068 897 1067 826 q 1068 1013 1069 993 q 950 1019 1022 1022 q 831 1017 846 1017 q 828 850 828 992 l 828 815 l 796 790 l 740 794 l 743 819 q 692 944 743 875 q 626 1067 635 1021 q 597 1078 615 1078 q 553 1068 592 1078 q 513 974 554 1017 q 449 900 454 911 q 439 842 443 889 q 413 796 436 807 l 383 803 q 382 909 379 838 q 379 1017 385 981 q 214 1026 290 1026 q 124 1014 139 1026 q 133 778 121 935 q 308 776 161 776 q 347 772 339 776 q 361 740 361 767 q 340 713 361 717 q 297 707 318 708 q 184 646 249 701 q 74 592 119 590 q 64 526 63 583 q 210 451 114 488 q 356 390 322 410 q 267 326 347 332 q 136 325 201 325 q 131 206 128 279 q 133 88 133 103 l 349 82 l 371 96 l 371 103 q 379 210 371 146 q 406 303 389 292 l 421 300 q 494 171 456 251 q 560 39 549 58 q 622 38 572 33 l 626 43 q 751 297 631 90 l 797 310 q 826 267 821 297 q 828 213 828 261 q 840 82 828 115 q 963 76 901 79 q 1071 83 1060 74 l 1074 319 q 890 340 1014 340 q 851 386 851 340 q 888 406 851 406 q 989 461 888 406 q 1115 526 1090 517 m 851 556 q 818 508 851 533 q 771 468 776 476 q 751 464 765 468 q 729 460 738 460 q 701 474 718 460 q 674 489 685 489 q 654 469 654 489 q 665 451 654 472 q 676 410 676 429 q 645 341 676 381 q 586 301 614 301 l 578 303 q 546 347 576 308 q 515 418 515 386 q 529 451 515 432 q 543 483 543 471 l 542 490 q 525 497 533 497 q 492 488 513 497 q 460 478 472 478 q 396 513 431 478 q 335 553 357 549 q 390 592 336 564 q 461 621 443 621 q 488 615 471 621 q 513 610 504 610 q 529 613 513 610 q 536 632 536 621 q 525 662 536 643 q 514 690 514 681 q 549 750 514 708 q 599 792 583 792 q 644 748 613 792 q 675 688 675 704 q 665 654 675 674 q 656 631 656 635 q 679 615 656 615 q 713 626 692 615 q 746 636 733 636 q 763 632 746 636 q 851 556 794 608 m 599 600 q 560 560 560 600 q 603 515 560 515 q 642 560 642 515 q 628 587 642 574 q 599 600 614 600 z "},"C":{"ha":1229,"x_min":29,"x_max":1200,"o":"m 1176 796 q 1097 673 1157 732 q 975 593 1038 614 q 893 800 960 704 q 979 824 919 824 q 1088 811 1019 824 q 1176 796 1167 796 m 879 829 q 764 899 819 875 q 643 939 733 913 q 731 1035 643 958 q 840 1111 819 1111 q 865 993 844 1083 q 882 875 882 921 q 879 829 882 851 m 1200 360 l 1194 336 q 1106 317 1172 328 q 971 304 1028 304 q 878 338 878 304 q 900 371 878 349 q 922 408 922 393 q 954 482 942 435 q 975 560 972 554 q 1097 469 1036 514 q 1200 360 1169 414 m 588 939 q 365 833 433 897 q 354 899 354 844 q 364 1022 354 953 q 385 1111 374 1090 q 508 1040 428 1106 q 588 939 588 974 m 836 571 q 772 416 836 481 q 617 351 707 351 q 457 420 525 351 q 389 581 389 489 q 450 724 389 654 q 613 806 518 803 q 836 571 836 813 m 854 301 q 840 4 869 154 q 831 3 836 3 q 713 94 796 3 q 625 219 631 186 q 722 246 635 225 q 840 311 789 261 l 854 301 m 344 815 q 294 728 319 771 q 261 593 258 656 q 258 590 261 590 q 146 664 231 590 q 53 800 54 744 q 344 815 183 829 m 371 315 q 292 300 349 300 q 142 320 224 300 q 29 364 61 340 q 128 489 69 426 q 256 569 207 569 q 371 315 265 450 m 389 0 q 363 153 363 69 q 394 301 363 244 q 492 253 443 276 q 594 229 540 229 q 606 208 606 229 q 524 85 606 147 q 389 0 499 65 z "},"D":{"ha":1174,"x_min":33,"x_max":1146,"o":"m 1146 4 l 33 0 l 33 1111 l 1146 1106 l 1146 4 m 1111 164 q 1078 243 1111 206 q 1006 292 1047 276 q 1075 340 1040 315 q 1103 419 1103 367 q 1067 508 1103 472 q 979 543 1032 543 q 893 504 926 543 q 860 413 860 465 q 847 397 860 400 q 772 474 826 425 q 694 553 717 522 q 850 711 738 604 q 981 561 863 561 q 1065 597 1018 561 q 1111 668 1111 632 q 1082 761 1111 725 q 1031 799 1064 783 q 999 819 999 814 q 1069 864 1050 846 q 1103 940 1103 896 q 1065 1033 1103 996 q 971 1069 1026 1069 q 882 1022 917 1069 q 847 969 865 996 q 799 1040 836 1008 q 722 1071 763 1071 q 642 1037 686 1071 q 597 969 597 1003 q 638 863 596 892 q 743 821 644 858 q 672 742 717 786 q 596 665 633 704 l 582 665 l 435 814 q 581 942 581 836 q 540 1030 581 999 q 442 1061 499 1061 q 368 1014 404 1061 q 329 935 338 975 q 301 1007 315 971 q 192 1067 272 1067 q 114 1028 150 1067 q 78 947 78 990 q 144 843 78 876 q 219 814 182 828 q 122 775 171 794 q 78 678 78 751 q 116 595 78 629 q 203 561 154 561 q 294 606 271 561 q 326 700 310 653 q 413 626 349 688 q 481 547 481 560 q 399 469 449 528 q 324 394 350 411 q 199 544 332 544 q 110 508 149 544 q 72 421 72 471 q 115 332 72 358 q 200 290 157 311 l 194 285 q 69 151 69 282 q 109 76 69 111 q 190 40 149 40 q 289 93 257 40 q 321 156 306 125 q 363 79 328 117 q 436 38 399 38 q 575 167 575 38 q 532 258 575 224 q 435 292 494 288 q 582 447 501 371 q 743 296 669 376 q 736 285 738 286 q 714 286 735 285 q 624 249 664 288 q 585 160 585 211 q 626 73 585 111 q 718 35 668 35 q 814 96 775 35 q 853 164 833 129 q 893 76 869 103 q 981 40 925 40 q 1071 77 1031 40 q 1111 164 1111 114 z "},"E":{"ha":1161,"x_min":26,"x_max":1133,"o":"m 1133 554 q 1060 482 1114 513 q 961 458 1007 451 q 858 293 946 350 q 831 363 844 328 q 754 479 800 436 q 596 540 689 542 q 839 281 588 339 q 674 174 799 196 q 646 75 661 106 q 575 0 622 26 q 505 72 535 18 q 476 171 475 125 q 314 274 356 196 l 324 282 q 568 536 518 299 q 551 538 560 538 q 401 461 485 538 q 304 293 311 381 q 226 361 247 331 q 196 458 201 397 q 131 472 163 465 q 28 551 65 492 q 92 625 26 593 q 193 651 147 653 q 304 821 222 785 q 383 653 319 726 q 546 571 456 571 q 568 574 561 571 q 490 746 567 672 q 315 831 414 819 q 381 910 331 879 q 479 942 424 938 q 508 1033 493 988 q 568 1111 522 1078 q 647 1043 622 1086 q 676 943 665 1010 q 843 831 797 929 q 594 572 608 788 l 596 569 q 856 822 786 578 q 931 752 901 797 q 961 656 960 707 q 1060 628 1033 642 q 1133 554 1104 607 m 701 857 l 700 860 q 635 881 679 867 q 613 923 628 882 q 575 975 599 964 q 547 926 551 944 q 533 883 538 894 q 517 878 529 878 q 460 860 474 878 q 581 740 546 807 q 632 807 596 764 q 701 857 657 821 m 1000 556 q 921 596 975 574 q 899 606 911 596 q 882 685 897 638 q 865 660 876 676 q 806 590 863 656 q 764 554 790 579 l 800 521 q 871 446 822 494 q 885 428 872 431 q 897 468 896 442 q 899 511 897 489 q 999 551 960 526 l 1000 556 m 710 250 q 596 351 629 310 q 583 365 594 365 q 574 360 579 365 q 469 260 535 319 q 457 251 457 249 l 457 247 q 501 235 479 242 q 538 217 535 225 q 543 199 540 210 q 560 160 546 189 q 582 131 574 131 q 615 185 596 131 q 644 235 633 239 q 710 250 676 238 m 386 554 l 388 557 q 376 572 388 564 q 363 582 365 579 q 314 631 339 592 q 275 685 285 676 q 264 657 264 661 q 251 624 261 644 q 233 599 250 607 q 199 588 215 592 q 158 563 189 575 q 157 556 157 560 q 172 542 157 553 q 190 532 186 531 q 226 514 196 525 q 254 490 251 506 q 272 425 258 469 q 299 467 281 438 q 360 535 310 485 q 386 554 368 542 z "},"F":{"ha":1168,"x_min":28,"x_max":1140,"o":"m 1140 557 q 1079 310 1140 414 q 890 357 985 333 q 750 461 769 396 q 742 490 746 475 q 728 513 739 504 l 638 515 q 622 476 622 504 l 622 419 q 665 399 635 410 q 708 376 694 389 q 768 217 760 332 q 819 60 776 101 q 579 0 739 0 q 342 57 439 0 q 386 190 358 90 q 436 325 410 283 q 547 401 476 389 l 557 410 q 558 471 558 404 q 536 522 558 511 q 485 522 542 522 q 415 453 468 522 q 306 364 360 378 q 194 349 250 357 q 93 304 132 339 q 28 558 28 400 q 90 808 28 688 q 124 794 106 810 q 154 769 150 772 q 273 740 190 750 q 388 710 356 729 q 451 592 440 676 l 463 582 q 511 583 474 586 q 557 594 542 581 q 558 647 557 596 q 542 694 558 681 q 439 772 472 700 q 399 921 422 807 q 350 1054 378 1019 q 582 1111 446 1111 q 832 1049 726 1111 q 786 921 799 1008 q 760 786 769 813 q 663 697 733 718 q 619 674 619 685 q 618 624 619 582 q 632 579 619 593 l 732 579 q 748 620 740 592 q 765 661 756 649 q 918 728 806 714 q 1082 776 1042 743 q 1126 676 1108 769 q 1140 557 1140 604 z "},"G":{"ha":1164,"x_min":28,"x_max":1136,"o":"m 1133 563 q 1032 449 1115 519 q 1061 407 1035 432 q 1110 353 1097 374 q 1136 253 1136 311 q 1082 89 1136 158 q 931 13 1024 13 q 718 117 789 13 q 654 61 689 99 q 596 0 625 31 q 519 67 567 18 q 442 135 471 117 q 360 61 400 99 q 253 31 317 31 q 96 102 163 31 q 29 263 29 174 q 56 367 29 324 q 126 449 69 389 q 88 493 118 464 q 49 543 57 522 q 110 603 50 544 q 160 669 146 639 q 65 759 101 700 q 28 882 28 818 q 92 1040 28 978 q 251 1101 157 1101 q 371 1072 318 1101 q 439 1019 406 1054 q 471 992 467 992 l 478 993 q 523 1039 489 1011 q 568 1088 557 1067 q 626 1047 589 1082 q 689 1011 664 1013 q 889 1111 744 1111 q 1070 1046 1004 1111 q 1136 867 1136 981 q 1108 754 1136 801 q 1054 696 1090 725 q 1026 665 1026 674 l 1026 656 l 1133 563 m 910 567 q 769 669 813 625 q 737 650 753 671 q 710 629 721 629 q 685 646 699 629 q 661 669 664 668 q 678 705 664 683 q 694 740 693 726 q 635 818 668 765 q 578 900 594 879 q 539 817 563 882 q 483 743 519 763 q 503 713 483 726 q 535 693 518 703 l 535 685 q 511 656 535 676 q 478 636 488 636 q 447 653 467 636 q 415 671 428 671 q 260 557 410 671 q 414 454 286 535 q 471 486 431 468 q 499 461 474 479 q 518 433 518 449 l 517 425 q 490 381 490 404 q 528 314 490 354 q 578 247 571 268 q 646 329 594 264 q 700 410 700 400 q 689 436 700 421 q 671 458 672 456 q 722 501 686 476 q 764 482 743 482 q 837 522 792 482 q 910 567 882 563 m 674 549 q 592 478 674 476 q 501 565 496 478 q 593 643 507 643 q 652 615 631 643 q 674 549 674 586 z "},"H":{"ha":1133,"x_min":26,"x_max":1107,"o":"m 1099 726 q 1000 651 1099 710 q 878 578 939 615 q 795 696 864 578 q 728 828 726 814 l 729 839 q 856 913 736 842 q 975 963 950 969 q 1099 726 1099 765 m 706 847 q 560 839 693 840 q 428 842 429 838 q 428 961 429 850 q 436 1100 426 1051 q 599 1111 456 1111 q 706 1103 682 1111 l 706 847 m 1107 406 q 967 165 1069 338 q 849 225 939 171 q 751 303 751 283 q 801 424 751 333 q 874 542 843 501 q 1107 406 1097 428 m 408 815 q 340 688 401 792 q 267 578 278 578 q 150 643 256 578 q 26 722 49 704 q 94 838 47 768 q 167 951 150 918 q 408 815 322 876 m 706 0 q 444 14 522 -11 q 438 147 442 81 q 442 281 435 226 q 521 293 454 293 q 626 289 556 293 q 706 286 690 285 q 706 0 718 238 m 413 310 q 303 242 386 297 q 185 181 232 196 q 106 304 179 192 q 47 418 46 397 q 276 542 82 440 q 332 457 307 496 q 413 310 392 361 z "},"I":{"ha":1160,"x_min":28,"x_max":1129,"o":"m 1125 325 q 925 261 1061 261 q 889 197 896 261 q 872 78 874 82 q 804 14 856 14 q 672 66 754 14 q 574 117 590 118 q 363 0 465 0 q 275 88 293 0 q 268 231 268 119 q 258 260 268 249 q 124 272 190 265 q 28 339 28 289 q 129 558 28 463 q 75 649 126 576 q 29 768 29 714 q 79 833 29 817 q 183 847 104 843 q 276 867 253 851 q 294 1018 276 956 q 388 1111 322 1111 q 492 1081 438 1111 q 579 1015 515 1065 q 681 1063 610 1024 q 783 1090 735 1090 q 817 1088 799 1090 q 871 979 860 1049 q 897 881 885 900 q 964 858 904 871 q 1067 828 1035 844 q 1121 753 1121 800 q 1067 642 1121 707 q 1013 571 1013 576 q 1071 481 1013 546 q 1129 357 1129 415 q 1125 325 1129 342 m 1075 363 q 926 565 1051 406 q 1001 654 958 599 q 1060 744 1060 726 q 982 796 1060 775 q 876 814 921 814 q 842 826 853 814 q 831 944 843 872 q 789 1035 814 1035 q 669 985 756 1035 q 574 938 583 936 q 490 1011 538 978 q 390 1054 431 1053 q 340 939 353 1024 q 331 804 335 871 q 207 796 219 797 q 88 769 138 789 q 211 568 104 699 q 160 498 210 563 q 85 354 110 433 q 208 319 121 319 q 231 319 217 319 q 253 319 246 319 q 324 303 308 319 q 324 176 322 192 q 360 57 329 78 q 571 203 456 64 q 678 143 589 201 q 794 72 774 81 q 832 183 828 100 q 835 308 833 246 q 944 315 854 315 q 1015 330 972 315 q 1075 363 1058 344 m 919 689 q 881 629 919 671 q 822 581 843 588 q 733 631 794 599 q 740 685 740 682 q 772 725 749 717 q 854 715 813 721 q 919 689 919 706 m 738 744 q 639 719 678 719 q 610 763 636 726 q 589 810 589 790 q 639 867 589 832 q 708 913 674 889 l 724 908 q 738 744 746 844 m 929 417 q 847 399 915 401 q 753 401 790 396 q 742 442 744 414 q 733 479 739 469 q 765 521 738 501 q 810 551 804 546 q 864 515 843 546 q 904 454 885 483 q 929 417 915 444 m 558 803 q 544 763 558 786 q 524 722 526 729 q 497 719 511 719 q 418 735 485 719 q 407 785 407 747 q 438 913 407 881 q 508 867 468 899 q 558 803 558 828 m 403 700 q 400 686 400 693 q 409 655 400 675 q 418 625 418 635 q 392 598 418 613 q 353 583 367 583 q 293 628 329 583 q 251 700 257 674 q 319 718 276 717 q 390 719 354 718 l 403 700 m 738 372 q 722 211 738 250 q 599 318 665 229 l 599 324 q 643 401 597 358 q 696 393 643 400 q 738 372 738 386 m 567 333 q 521 272 560 304 q 454 228 488 250 q 446 226 451 226 q 429 379 428 226 q 513 401 474 401 q 544 375 535 401 q 567 333 558 340 m 429 504 q 418 451 421 490 q 400 394 415 411 q 229 407 321 381 q 276 500 231 450 q 350 558 313 539 q 429 504 401 532 z "},"J":{"ha":1171,"x_min":28,"x_max":1143,"o":"m 1143 558 q 1043 447 1104 494 q 993 385 997 411 q 992 256 993 321 q 974 142 992 156 q 906 144 949 140 q 836 149 857 149 q 719 110 771 149 q 649 39 696 92 q 594 0 615 0 q 511 64 565 0 q 429 144 450 135 q 376 150 415 150 q 289 146 351 150 q 214 144 232 143 q 199 315 199 157 q 160 414 199 365 q 83 489 140 439 q 28 550 36 529 q 188 717 79 607 q 192 775 192 743 q 188 853 192 801 q 183 929 183 904 q 244 951 183 950 q 403 949 124 949 q 492 1019 421 949 q 586 1111 575 1103 q 678 1042 621 1111 q 769 946 746 960 l 979 949 q 990 928 989 939 q 993 736 990 917 q 1071 649 1011 706 q 1143 558 1125 596 m 1086 567 q 979 676 986 668 q 954 747 957 706 q 947 903 951 825 q 861 900 918 903 q 776 897 804 897 q 589 1054 729 897 l 443 913 q 338 903 401 903 q 231 903 283 903 q 242 728 242 792 q 170 632 242 700 q 99 549 99 564 q 161 475 99 542 q 238 396 200 436 q 251 186 240 299 q 353 192 301 189 q 453 186 414 194 q 589 51 503 142 q 668 125 601 57 q 750 186 728 186 q 758 183 754 186 q 947 189 847 197 q 944 256 944 218 q 942 394 944 301 q 1017 481 947 419 q 1086 567 1086 542 m 849 271 q 639 261 756 261 q 325 271 564 261 l 325 425 q 325 631 325 528 q 333 813 325 807 q 831 821 360 828 q 858 524 858 821 q 849 271 858 272 m 804 550 q 699 667 788 578 q 589 765 611 757 q 481 661 535 714 q 386 561 389 574 l 594 351 q 804 550 663 419 z "},"K":{"ha":1165,"x_min":28,"x_max":1138,"o":"m 1138 572 q 1071 485 1121 532 q 992 403 1006 422 q 1040 304 1000 379 q 1068 188 1068 253 q 1056 110 1068 144 q 965 94 1013 94 q 742 163 875 94 q 585 0 689 110 l 569 0 l 407 163 q 294 115 382 157 q 171 85 228 85 q 107 110 132 85 q 101 175 101 142 q 174 394 101 297 q 99 474 158 415 q 28 558 50 522 q 186 719 85 607 q 143 808 179 739 q 115 907 115 860 q 117 992 115 981 q 172 1033 126 1032 q 419 957 318 1036 q 511 1034 454 979 q 600 1111 568 1089 l 747 965 q 856 1014 800 989 q 971 1039 913 1039 q 1051 1024 1015 1039 q 1064 943 1064 985 q 985 731 1064 835 q 1058 650 1007 697 q 1138 572 1118 596 m 900 572 q 853 644 894 618 q 767 679 828 661 q 688 711 707 697 l 688 718 q 653 819 689 772 q 564 889 617 867 q 471 688 471 825 q 410 672 471 672 q 313 632 367 672 q 253 550 260 592 q 444 444 321 444 q 479 397 460 444 q 519 308 504 332 q 604 261 553 261 q 688 444 688 310 q 703 471 688 460 l 728 469 q 900 572 806 463 m 579 479 q 490 572 490 479 q 517 628 490 604 q 576 653 544 653 q 642 631 615 653 q 668 567 669 608 q 579 479 664 479 z "},"L":{"ha":1188,"x_min":25,"x_max":1156,"o":"m 593 0 q 28 565 25 549 q 590 1111 121 660 q 911 817 751 964 q 1156 568 1156 592 q 888 281 1156 554 q 593 0 621 7 m 931 558 q 886 656 931 619 q 783 688 844 688 q 708 669 775 688 q 721 713 708 683 q 733 761 733 742 q 692 854 733 817 q 594 892 650 892 q 499 855 540 892 q 457 765 457 818 q 476 683 457 724 q 463 678 472 678 q 429 684 453 678 q 399 690 406 690 q 294 651 336 690 q 251 551 251 613 q 292 452 251 490 q 393 414 332 414 q 424 421 404 414 q 456 428 444 428 q 469 425 463 428 q 461 385 468 417 q 456 344 456 361 q 498 255 456 292 q 593 218 540 218 q 733 379 733 218 q 731 422 733 400 q 762 419 742 425 q 789 414 782 414 q 892 454 854 414 q 931 558 931 494 m 658 561 q 626 517 658 560 q 593 475 594 475 q 529 561 572 503 q 565 601 551 572 q 590 649 583 639 q 621 603 600 639 q 658 561 638 574 z "},"M":{"ha":1151,"x_min":28,"x_max":1124,"o":"m 1124 0 l 28 0 l 28 1111 l 1124 1111 l 1124 0 m 1078 58 l 1078 339 q 875 533 1058 353 l 875 551 q 1069 733 936 617 q 1060 1054 1069 1033 q 797 1050 972 1051 q 713 956 772 1018 q 624 869 646 885 q 601 858 613 864 q 586 840 586 849 q 625 815 586 832 q 671 772 664 797 q 683 701 683 731 q 667 636 683 667 q 676 625 671 625 q 701 635 681 625 q 742 644 722 644 q 861 529 861 644 q 825 456 861 486 q 746 425 789 425 q 703 439 729 425 q 664 454 678 453 q 690 419 665 450 q 706 374 706 401 q 674 290 706 324 q 593 257 643 257 q 585 249 586 257 q 790 51 654 185 q 1078 58 982 47 m 682 533 q 659 599 682 569 q 601 628 636 628 q 544 606 575 628 q 513 560 513 585 q 613 464 513 478 q 682 533 682 494 m 574 839 q 471 943 540 876 q 365 1047 397 1011 q 82 1036 228 1046 l 82 744 q 293 551 154 679 q 394 649 293 649 q 497 618 440 649 q 478 671 497 621 q 465 725 465 701 q 501 797 465 761 q 574 839 536 829 m 574 246 q 550 264 574 249 q 504 301 521 283 q 481 368 481 332 q 503 443 481 406 q 490 451 497 451 q 463 435 489 451 q 408 419 438 419 q 286 518 329 419 q 74 313 226 472 l 67 65 q 74 43 67 50 q 369 49 172 47 q 474 144 413 75 q 574 246 540 219 m 954 906 l 944 849 q 893 824 924 847 q 843 799 863 800 q 906 917 863 867 q 954 906 924 918 m 315 817 q 228 860 269 817 l 228 903 l 232 903 q 279 869 257 904 q 315 817 315 817 m 958 192 q 908 179 933 179 l 900 179 l 829 267 l 836 276 q 913 256 847 267 q 963 214 963 247 q 958 192 963 204 m 313 269 q 286 217 299 243 q 240 188 269 188 q 233 196 233 188 q 236 208 233 200 q 240 219 239 217 q 313 269 275 251 z "},"N":{"ha":1172,"x_min":28,"x_max":1144,"o":"m 1142 549 q 1001 418 1072 483 q 974 336 974 388 q 975 291 974 326 q 976 226 976 256 q 971 168 976 226 q 763 164 940 164 q 672 93 746 164 q 579 0 625 46 l 418 164 q 192 168 164 168 q 188 400 175 185 q 28 561 133 463 q 109 644 51 593 q 189 725 167 696 q 192 941 192 928 q 196 958 193 954 l 428 960 q 596 1113 590 1113 q 599 1111 597 1113 q 604 1110 601 1110 l 757 956 q 974 953 865 956 q 978 936 978 949 q 978 729 978 924 q 1142 549 1144 560 m 993 558 q 926 604 971 589 q 901 671 901 613 q 896 688 901 679 q 780 653 883 681 q 664 625 676 625 q 647 644 647 625 q 651 675 647 644 q 690 771 681 708 q 708 875 706 867 q 658 881 678 888 q 589 975 631 921 q 510 883 525 925 q 472 883 508 883 q 438 875 450 883 q 467 761 467 833 q 490 699 467 735 q 519 638 515 658 q 490 619 507 619 q 388 659 488 619 q 274 706 288 699 q 267 624 264 663 q 217 601 257 617 q 172 571 185 590 q 236 510 190 533 q 268 446 268 493 q 274 426 268 435 q 375 460 325 443 q 475 501 433 478 q 506 497 490 500 q 522 469 522 494 q 504 425 522 444 q 472 339 481 397 q 447 251 464 275 q 488 243 458 244 q 524 228 513 240 q 542 190 524 207 q 576 156 560 172 q 617 186 594 156 q 640 236 640 217 q 675 246 650 246 q 713 246 713 246 q 696 342 696 293 q 668 417 696 369 q 640 494 640 465 q 664 508 653 508 l 671 507 q 776 454 735 461 q 896 446 836 450 l 894 468 q 936 514 892 497 q 993 558 986 531 m 611 558 q 568 528 611 528 q 551 574 547 544 q 565 588 553 579 q 583 596 578 596 q 602 583 593 596 q 611 558 611 569 z "},"O":{"ha":1176,"x_min":26,"x_max":1150,"o":"m 811 324 q 817 153 814 296 q 826 0 818 28 q 699 113 793 10 q 575 210 608 210 q 460 121 551 210 q 338 7 347 13 q 310 343 307 107 q 171 340 150 340 q 33 356 90 340 q 119 464 57 408 q 224 556 172 510 l 224 578 l 26 768 q 40 779 33 775 q 97 785 47 783 q 300 785 88 785 l 325 807 q 335 994 325 883 q 351 1103 344 1106 q 465 1006 406 1078 q 572 896 535 922 l 804 1111 q 814 1043 813 1099 q 811 936 814 1006 q 808 858 808 867 q 875 785 808 785 q 923 789 890 785 q 972 793 956 793 q 1110 768 1056 793 q 1025 671 1114 749 q 917 581 971 626 q 981 494 919 540 q 1090 424 992 486 q 1150 367 1150 386 q 1000 331 1150 339 q 811 324 906 328 m 554 851 q 365 769 443 853 q 286 576 286 686 q 381 352 286 454 q 599 250 476 250 q 785 358 717 250 q 842 576 842 451 q 768 793 842 732 q 554 851 704 847 z "},"P":{"ha":1157,"x_min":24,"x_max":1129,"o":"m 1129 568 q 1082 444 1129 481 q 961 392 1072 438 q 1018 267 1018 344 q 978 165 1018 200 q 871 129 939 129 q 742 181 811 129 l 738 228 q 735 283 735 261 q 776 369 735 354 q 938 383 792 374 l 950 396 l 817 532 q 882 617 828 565 q 961 689 921 653 q 860 697 954 696 q 750 696 771 700 l 742 704 q 736 804 742 717 q 739 903 732 864 l 722 911 q 658 836 690 874 q 582 775 619 794 q 503 846 556 793 q 422 914 456 894 q 411 840 411 899 q 407 779 411 818 q 403 719 404 735 q 311 706 379 711 q 219 685 251 700 q 279 615 231 658 q 336 538 328 571 q 276 471 310 515 q 219 400 235 417 q 81 433 117 410 q 24 561 24 468 q 69 664 24 626 q 178 700 111 700 q 203 713 200 700 q 139 839 139 764 q 183 944 139 894 q 282 990 228 993 l 344 986 q 422 922 369 963 q 442 991 433 935 q 474 1072 451 1047 q 585 1111 507 1111 q 685 1066 646 1111 q 725 960 725 1021 q 722 931 725 944 l 739 922 q 865 992 800 992 q 967 954 925 992 q 1008 858 1008 917 q 961 719 1008 774 q 1015 708 972 708 q 1093 659 1057 708 q 1129 568 1129 610 m 665 542 q 642 483 665 508 q 586 458 619 458 q 500 553 499 458 q 522 610 500 585 q 574 635 543 635 q 640 608 615 635 q 665 542 665 582 m 600 0 q 478 40 524 0 q 436 154 433 81 l 438 169 q 485 207 458 175 q 532 244 511 239 q 604 294 571 294 q 638 283 621 294 q 660 258 656 271 q 704 201 665 242 q 739 136 739 168 q 692 45 739 90 q 600 0 646 0 m 429 186 q 378 139 404 163 q 315 114 347 114 q 196 150 240 114 q 147 263 147 189 q 165 338 147 296 q 217 388 188 388 q 235 376 226 388 l 403 376 q 419 289 406 363 q 429 200 431 235 l 429 186 z "},"Q":{"ha":1171,"x_min":28,"x_max":1143,"o":"m 1143 0 l 833 0 q 596 235 696 151 q 482 117 560 193 q 369 0 404 42 l 28 0 l 28 335 q 143 450 67 364 q 263 561 213 529 l 267 556 q 419 715 332 615 q 567 882 493 799 l 551 899 q 324 894 438 896 q 258 890 268 893 q 251 882 254 886 q 246 585 251 782 q 28 799 169 653 l 28 1111 l 361 1111 q 453 1014 361 1106 q 563 899 550 918 q 781 1111 576 903 l 1143 1111 l 1143 778 q 936 585 1036 669 q 933 890 933 686 q 925 900 929 894 q 850 901 915 901 q 588 899 718 900 l 576 879 l 910 549 q 760 393 861 489 q 607 240 650 289 l 625 226 q 906 226 889 226 q 933 235 922 228 l 936 549 q 1033 456 992 496 q 1143 338 1132 358 l 1143 0 m 757 564 q 697 638 757 585 q 625 725 633 693 q 572 743 600 743 q 518 712 540 743 q 493 646 496 681 q 438 615 465 632 q 410 563 410 599 q 450 494 410 539 q 504 419 496 446 q 589 374 519 374 q 613 375 601 374 q 657 419 644 381 q 686 474 671 464 q 757 564 757 515 m 275 543 l 263 543 l 257 240 q 356 231 267 231 q 576 238 392 231 l 275 543 z "},"R":{"ha":1149,"x_min":28,"x_max":1122,"o":"m 1122 554 q 975 403 1113 536 q 968 165 971 329 l 738 164 q 579 0 689 106 q 518 50 568 0 q 451 114 463 107 q 339 167 435 167 q 299 165 325 167 q 264 164 274 164 q 186 177 207 164 q 165 224 165 190 q 174 295 165 236 q 182 400 182 354 l 28 564 q 103 647 53 597 q 182 728 163 707 q 185 967 182 846 l 424 967 l 576 1111 q 731 967 583 1113 l 969 960 q 978 706 975 951 q 1122 554 1026 656 m 949 715 q 736 721 924 715 q 724 938 718 738 q 579 796 674 892 l 575 796 q 504 880 569 815 q 433 936 439 944 q 421 724 435 739 q 210 718 217 724 q 338 571 213 714 q 270 497 326 551 q 210 428 214 442 q 424 419 303 422 q 429 317 429 389 q 428 211 428 210 q 431 185 428 188 q 575 325 478 232 q 721 194 639 263 q 719 354 722 268 q 731 417 719 364 q 942 421 836 417 q 815 561 814 554 q 889 642 821 568 q 949 715 949 707 z "},"S":{"ha":1175,"x_min":28,"x_max":1146,"o":"m 1146 565 q 1075 471 1146 543 q 992 392 1033 431 l 1000 158 l 751 154 q 593 0 701 99 l 435 154 l 196 154 q 201 383 196 231 q 28 543 146 439 l 28 558 l 32 558 q 204 717 89 611 q 213 942 204 792 q 328 950 258 950 q 444 949 386 950 q 528 1032 469 971 q 613 1111 578 1086 l 768 949 q 992 954 843 949 l 1000 714 q 1146 565 1053 668 m 982 553 q 918 613 954 574 q 858 676 888 644 q 853 815 861 724 q 707 818 804 818 q 583 931 668 857 q 515 863 540 900 q 481 826 496 833 q 372 815 456 815 q 333 810 372 815 l 331 671 q 279 616 311 656 q 226 560 247 576 l 225 544 q 326 449 231 539 l 328 297 l 339 288 q 486 282 388 288 q 590 189 507 265 q 643 221 624 194 q 686 264 667 254 q 818 286 728 286 q 853 290 818 286 l 858 426 q 982 553 897 472 m 811 558 q 704 485 804 485 q 667 489 685 485 q 660 472 658 485 q 664 453 664 446 q 643 385 664 421 q 593 342 621 342 q 525 476 536 342 q 496 479 514 482 q 467 475 469 475 q 405 500 444 475 q 365 546 365 525 q 407 604 365 579 q 481 626 444 626 q 521 618 503 626 l 533 626 q 529 661 529 643 q 550 735 529 696 q 606 781 575 781 q 667 621 668 781 l 686 622 q 811 558 778 625 z "},"T":{"ha":1147,"x_min":25,"x_max":1122,"o":"m 1119 278 l 1093 256 l 872 253 l 867 247 q 871 192 867 236 q 875 121 875 147 q 819 18 875 18 q 694 117 794 18 q 569 242 632 179 q 440 100 504 171 q 296 0 339 -4 l 289 0 l 265 38 l 261 247 q 53 253 192 249 l 28 272 l 25 290 q 122 426 25 328 q 251 550 186 489 l 35 772 l 28 822 l 47 844 l 267 850 q 268 950 271 888 q 265 1051 265 1026 l 267 1089 l 294 1111 l 301 1111 q 451 999 338 1113 q 572 871 511 935 l 783 1088 l 836 1097 l 858 1075 l 861 864 l 867 857 l 1104 853 l 1114 803 q 1011 685 1110 785 q 892 564 951 625 l 892 556 q 1024 435 958 494 q 1122 307 1122 339 l 1119 278 m 1072 311 q 832 556 1054 328 q 583 792 686 704 l 589 806 l 817 808 q 829 572 821 807 q 1060 803 904 650 l 1060 808 q 825 811 903 815 l 817 819 l 815 1047 l 811 1047 l 578 808 l 564 808 q 443 936 522 857 q 319 1061 353 1025 l 311 1061 l 310 1032 q 317 806 310 1032 q 547 803 318 806 l 554 794 l 336 568 l 314 572 l 311 800 l 75 800 l 75 799 l 317 553 l 317 544 l 306 539 l 76 306 l 76 297 q 286 297 76 297 q 306 292 286 297 q 306 160 307 285 q 314 51 306 51 l 554 297 q 324 299 515 299 l 314 313 l 314 536 l 322 547 q 444 429 361 513 q 569 313 522 351 l 815 556 l 825 547 l 825 299 l 586 297 q 694 178 586 282 q 819 76 803 75 l 819 286 l 829 299 q 1017 299 1026 299 q 1069 301 1064 300 q 1072 311 1071 306 m 711 544 q 660 525 711 529 q 589 519 624 522 q 581 497 582 510 q 581 472 579 488 q 582 449 582 454 q 558 410 582 419 q 542 463 544 428 q 542 519 542 490 l 535 528 q 475 528 504 528 q 418 544 439 531 l 418 547 q 468 565 418 564 q 531 561 503 565 l 540 568 q 538 631 536 596 q 557 683 539 681 q 578 636 575 683 q 588 574 582 582 q 607 565 594 567 q 632 565 615 564 q 660 568 654 568 q 711 544 711 568 z "},"U":{"ha":1179,"x_min":28,"x_max":1151,"o":"m 1151 318 q 924 536 1068 378 q 1007 640 965 589 q 1139 764 1094 744 l 1151 746 l 1151 318 m 1135 781 l 833 781 q 810 1099 821 861 q 701 982 756 1040 q 586 871 636 913 q 474 981 558 894 q 353 1082 404 1051 l 353 786 q 35 781 281 774 q 197 946 94 836 q 358 1111 306 1061 l 814 1111 q 976 956 881 1051 q 1135 797 1131 801 l 1135 781 m 1118 290 q 985 146 1074 235 q 850 4 888 50 q 615 -7 750 -7 q 372 0 501 -7 q 479 113 411 49 q 593 217 536 164 q 704 117 640 181 q 810 13 801 19 q 826 163 819 49 q 843 297 833 272 q 980 293 888 288 q 1118 290 1072 299 m 349 274 q 340 139 342 219 q 342 4 342 72 l 325 4 q 28 301 190 126 l 35 746 l 44 746 l 256 536 l 256 518 q 151 414 203 465 q 57 301 89 353 l 68 290 l 336 285 l 349 274 z "},"V":{"ha":1167,"x_min":29,"x_max":1138,"o":"m 1138 557 q 976 163 1138 325 q 582 0 814 0 q 191 162 353 0 q 29 553 29 324 q 190 949 29 788 q 586 1111 351 1111 q 978 951 818 1111 q 1138 557 1138 790 m 1094 558 l 1094 564 q 953 690 1006 594 q 922 803 922 746 q 947 939 922 840 q 835 904 903 904 q 725 929 778 904 q 581 1090 618 979 q 518 982 539 1010 q 437 914 482 933 q 333 894 392 894 q 206 922 263 894 q 228 849 211 903 q 238 794 238 815 q 189 653 238 718 q 68 564 140 588 q 225 413 196 481 q 244 331 244 369 q 225 218 244 311 q 322 235 269 235 q 425 215 381 235 q 508 146 469 194 q 583 49 546 97 q 717 210 621 172 q 804 229 767 229 q 867 219 826 229 q 935 206 908 208 q 919 318 919 286 q 943 419 919 368 q 1094 558 994 532 m 579 399 q 469 444 517 399 q 421 553 421 490 q 575 725 421 725 q 697 680 650 725 q 743 560 743 635 q 697 444 743 489 q 579 399 651 399 z "},"W":{"ha":1108,"x_min":24,"x_max":1082,"o":"m 1082 414 l 1064 375 l 829 375 l 814 363 q 850 251 832 307 q 874 136 872 183 q 844 126 865 126 q 750 175 813 126 q 651 242 674 233 q 606 106 629 174 q 542 0 569 0 q 482 100 519 0 q 435 229 458 165 q 338 161 413 221 q 240 108 272 108 l 217 111 q 211 135 211 118 q 239 253 211 168 q 274 363 272 354 q 246 375 263 372 q 213 374 235 376 q 183 371 190 371 q 42 389 60 371 l 44 442 l 208 560 q 113 635 203 574 q 24 725 24 696 l 26 757 q 263 765 106 760 q 268 781 268 769 q 233 890 268 804 q 199 1001 199 976 q 221 1004 208 1004 q 329 961 264 1004 q 425 896 378 928 q 474 988 442 894 q 514 1104 493 1046 q 549 1111 532 1111 q 611 1015 576 1111 q 656 886 633 951 q 753 948 669 882 q 853 1014 836 1014 q 894 999 894 1014 q 869 886 894 954 q 833 776 839 806 l 846 765 q 1064 732 1026 771 q 1058 704 1067 728 q 888 567 888 571 q 890 563 888 565 q 892 560 892 561 q 990 492 942 525 q 1082 414 1049 450 m 940 432 l 940 439 q 774 560 881 475 q 928 683 826 600 l 743 683 l 733 692 q 799 886 764 764 q 632 774 701 815 q 586 874 607 808 q 550 978 561 954 q 489 804 528 921 q 468 776 479 768 q 310 889 317 889 q 301 883 304 889 q 363 696 324 821 l 353 686 l 174 683 l 174 676 q 254 622 229 640 q 329 560 299 590 q 254 497 301 532 q 174 442 214 469 l 174 435 q 356 429 196 435 q 358 415 358 425 q 336 314 358 389 q 308 221 308 221 q 392 281 319 226 q 464 329 460 329 q 507 244 485 329 q 542 151 531 156 q 577 247 558 181 q 613 342 596 313 q 697 290 649 325 q 776 232 738 261 l 786 232 q 733 393 783 242 q 733 406 736 399 q 732 418 732 415 q 754 431 732 428 q 847 433 786 435 q 940 432 915 431 m 749 553 q 689 511 729 539 l 704 442 q 653 436 699 436 q 621 410 626 436 q 604 368 613 375 q 578 384 594 369 q 550 399 561 399 q 517 381 542 399 q 483 360 493 363 q 467 403 479 364 q 444 435 457 435 l 386 435 l 386 442 q 393 479 385 457 q 404 517 403 507 q 376 538 400 522 q 356 565 358 550 l 399 599 q 392 635 399 611 q 386 671 386 658 q 413 675 396 676 q 439 671 440 671 q 472 708 464 671 q 492 746 481 744 q 522 726 500 743 q 554 711 540 711 q 581 726 565 711 q 607 742 597 742 q 628 713 615 742 q 643 675 635 693 l 713 675 l 713 671 q 706 637 713 658 q 697 606 699 615 q 728 582 713 593 q 749 553 749 565 z "},"X":{"ha":1024,"x_min":15,"x_max":1000,"o":"m 1000 301 q 783 151 1000 281 q 521 0 643 67 q 54 240 274 90 q 25 840 15 267 q 264 989 144 915 q 493 1110 465 1110 q 719 989 513 1110 q 981 826 922 869 q 992 564 981 792 q 1000 301 1000 403 m 754 703 q 754 832 753 711 q 743 958 754 910 l 724 958 l 526 835 q 617 765 526 817 q 731 703 674 735 l 754 703 m 960 551 q 764 665 861 628 q 765 550 761 619 q 771 433 771 447 q 865 485 804 449 q 957 538 925 522 l 960 551 m 503 835 q 281 953 428 872 l 281 717 q 161 633 244 682 q 39 551 74 583 q 144 494 68 529 q 247 433 215 461 l 274 685 q 503 835 278 690 m 754 174 l 754 392 q 531 264 686 349 q 640 214 586 239 q 754 174 710 182 m 493 268 q 275 386 417 304 q 281 165 274 313 l 290 156 q 493 268 317 167 z "},"Y":{"ha":1178,"x_min":32,"x_max":1143,"o":"m 1135 0 l 36 3 l 32 1103 l 1143 1108 l 1135 0 m 1103 299 q 993 417 1103 314 q 860 539 926 478 q 969 664 871 558 q 1092 790 1063 763 q 831 1033 1033 842 q 714 913 772 972 q 606 811 614 811 q 471 935 589 811 q 336 1058 353 1058 q 210 939 328 1058 q 89 794 89 815 q 328 550 232 636 q 207 424 294 511 q 89 294 126 344 q 221 161 114 267 q 342 47 336 47 q 585 279 556 279 q 717 169 597 279 q 842 42 836 58 q 1103 299 890 61 m 850 708 q 778 608 850 660 q 825 544 796 569 q 805 516 822 533 q 783 486 788 499 q 832 449 829 451 q 851 388 851 426 q 822 326 851 354 q 757 299 792 299 q 694 317 714 299 q 656 367 675 342 q 621 339 644 361 q 579 314 597 317 q 524 364 563 335 q 457 289 503 315 q 400 292 428 290 q 358 325 368 296 q 335 374 335 342 q 356 434 335 404 q 411 479 378 464 q 388 513 408 493 q 364 544 368 532 q 392 579 367 551 q 411 617 411 600 q 362 651 385 624 q 339 704 339 678 q 365 768 339 738 q 422 799 390 799 q 475 785 444 799 q 514 753 506 771 q 519 733 517 743 q 531 719 522 719 q 559 748 533 719 q 594 776 585 776 q 626 758 607 776 q 656 736 646 739 q 750 803 711 803 q 819 774 789 803 q 850 708 850 746 m 714 539 q 590 661 660 596 q 519 610 571 661 q 457 538 479 568 q 522 465 471 515 q 594 413 579 413 q 658 472 603 422 q 714 539 697 510 z "},"Z":{"ha":1178,"x_min":22,"x_max":1153,"o":"m 547 1103 q 494 893 478 981 q 443 900 471 900 q 325 879 404 900 q 456 1101 390 990 q 499 1113 472 1113 q 547 1103 526 1113 m 853 885 q 846 883 850 883 q 805 892 835 883 q 754 900 775 900 q 664 893 715 900 q 610 1103 674 1033 q 656 1111 626 1111 q 713 1111 715 1111 q 759 1024 728 1082 q 853 885 790 965 m 603 938 q 582 838 596 904 q 563 874 571 840 q 557 919 557 900 q 574 975 557 951 q 578 976 575 976 q 593 959 589 976 q 603 938 597 942 m 469 732 q 447 690 469 707 q 399 672 425 672 q 335 718 358 672 q 317 788 317 754 q 329 835 317 815 q 425 813 394 829 q 469 732 469 789 m 264 640 q 217 643 239 643 q 31 569 110 643 q 24 624 24 589 q 28 681 24 650 q 264 822 168 739 q 249 731 249 778 q 264 640 249 683 m 844 806 q 760 668 836 668 q 706 690 744 668 q 683 744 683 731 q 726 800 683 774 q 797 824 765 824 q 836 817 817 824 l 844 806 m 1142 686 q 1151 635 1151 667 q 1146 578 1151 611 q 899 644 1056 649 q 928 728 928 676 q 915 822 928 726 q 1142 686 996 750 m 718 569 q 638 511 658 529 q 585 431 593 471 l 582 431 q 524 513 563 476 q 438 557 485 550 q 499 601 438 565 q 576 690 561 638 q 600 661 588 683 q 631 618 613 635 q 718 569 660 592 m 333 563 q 299 545 325 553 q 257 538 272 538 q 224 538 218 538 q 203 557 203 540 q 249 579 203 579 q 292 572 265 579 q 333 563 325 564 m 978 557 q 924 533 964 533 q 883 539 908 533 q 850 557 854 547 q 933 579 917 579 q 978 557 963 579 m 1146 533 q 1149 499 1146 524 q 1153 463 1153 475 q 1133 421 1153 431 q 892 274 1010 363 q 924 396 924 325 q 915 463 924 431 q 946 461 931 461 q 1146 533 1025 461 m 272 483 q 260 433 271 467 q 249 379 249 399 q 261 332 249 361 q 275 286 274 299 q 154 369 231 326 q 25 442 89 406 q 24 469 25 451 q 22 493 22 486 q 31 528 22 515 q 151 479 86 492 q 272 483 215 468 m 851 301 q 850 286 851 293 q 822 283 836 283 q 757 293 793 283 q 700 322 715 306 q 681 376 681 343 q 697 425 681 404 q 744 446 714 446 q 825 399 796 446 q 851 301 851 357 m 457 375 q 406 301 457 322 q 308 286 376 290 q 300 318 300 300 q 324 400 300 361 q 390 444 351 444 q 437 423 417 444 q 457 375 457 401 m 604 169 q 576 121 604 126 q 564 168 564 140 q 589 247 564 211 q 604 169 604 213 m 503 218 q 499 114 485 168 q 553 6 511 65 l 458 6 q 321 236 414 117 q 442 214 367 214 q 503 218 472 214 m 857 236 q 786 124 847 217 q 726 6 743 54 l 597 0 q 656 111 621 36 q 658 211 672 172 q 743 203 703 203 q 857 236 817 203 z "},"a":{"ha":1175,"x_min":28,"x_max":1147,"o":"m 1147 210 q 997 151 1057 207 q 939 3 933 92 l 249 0 q 189 160 242 103 q 31 215 132 222 l 28 894 q 246 1111 226 894 l 932 1111 q 992 957 936 1018 q 1144 899 1053 889 l 1147 210 m 850 828 q 768 1010 838 940 q 586 1081 699 1081 q 421 1017 483 1081 q 350 894 376 974 q 322 818 336 856 q 135 744 210 819 q 60 556 60 669 q 132 379 60 457 q 301 301 204 301 q 329 304 315 301 q 388 149 346 213 q 592 36 461 36 q 776 121 700 36 q 860 306 843 196 q 1040 380 968 308 q 1111 558 1111 451 q 1039 749 1111 676 q 850 828 968 817 m 1000 560 q 958 457 1000 499 q 854 415 915 415 q 797 431 825 415 q 757 447 769 446 q 714 399 743 431 q 747 294 747 353 q 706 188 747 233 q 603 142 664 142 q 490 188 536 142 q 443 301 443 235 q 463 382 443 347 q 441 413 458 396 q 418 438 424 429 q 317 413 363 413 q 214 456 257 413 q 171 557 171 499 q 212 660 171 617 q 311 704 253 704 q 410 674 364 704 q 443 696 425 678 q 474 724 465 719 q 454 769 472 729 q 444 821 444 794 q 487 926 444 882 q 590 969 529 969 q 693 927 651 969 q 735 825 735 885 q 721 767 735 800 q 707 719 707 733 l 754 674 q 858 708 811 708 q 960 665 921 708 q 1000 560 1000 622 m 686 553 q 660 621 686 593 q 593 649 633 649 q 528 622 553 649 q 503 554 503 594 q 528 488 503 515 q 594 461 554 461 q 660 487 633 461 q 686 553 686 513 z "},"b":{"ha":1192,"x_min":22,"x_max":1183,"o":"m 1163 524 q 1014 444 1132 511 q 888 383 913 385 l 882 340 q 992 313 904 315 q 1118 301 1094 310 l 1115 46 q 1042 36 1111 36 q 936 40 1001 36 q 865 43 901 42 q 854 135 854 74 l 854 185 q 825 288 853 267 l 769 276 q 692 139 736 226 q 635 0 638 35 q 560 0 613 -12 q 488 163 524 82 q 396 282 429 285 q 367 144 371 258 q 335 43 364 43 l 103 46 q 99 178 103 46 q 107 308 97 256 q 244 310 176 310 q 343 357 343 318 q 210 463 343 406 q 28 518 96 511 q 22 542 22 528 q 25 566 22 550 q 28 590 28 582 q 175 658 83 610 q 329 725 258 703 q 351 750 351 731 q 326 794 351 772 q 101 797 213 794 q 93 1057 88 875 l 367 1054 q 372 939 374 1011 q 372 824 369 850 l 404 817 q 435 883 429 833 q 456 947 442 932 q 522 1018 511 1004 q 554 1111 550 1058 q 588 1119 572 1119 q 635 1108 594 1119 q 706 976 646 1056 q 760 851 760 907 q 756 818 760 835 q 788 807 764 807 q 817 812 814 810 q 853 838 821 814 q 854 1054 853 968 q 940 1054 888 1051 q 1025 1057 1007 1057 q 1113 1050 1075 1057 q 1122 803 1114 967 q 1018 790 1108 790 q 890 782 918 790 l 882 751 q 1015 670 901 731 q 1163 601 1129 610 q 1163 524 1183 561 m 760 643 q 726 632 747 643 q 692 621 704 621 q 669 628 692 621 q 667 638 667 632 q 677 664 667 643 q 688 697 688 685 q 653 765 688 724 q 594 811 618 807 q 546 760 571 785 q 515 701 515 725 q 526 669 515 690 q 538 638 538 649 q 531 617 538 626 q 485 621 504 617 q 456 625 465 625 q 378 595 436 625 q 318 553 321 565 q 385 506 336 546 q 449 472 426 472 q 488 483 463 472 q 526 494 514 494 q 543 486 526 494 l 544 476 q 531 444 544 464 q 517 411 517 424 q 544 326 517 372 q 611 282 576 275 q 661 335 636 308 q 689 400 689 368 q 676 440 689 421 q 664 465 664 458 q 672 481 664 465 q 686 483 679 483 q 717 467 697 483 q 754 451 738 451 q 814 483 781 451 q 871 526 854 521 q 881 551 881 539 q 826 601 881 560 q 760 643 772 643 m 665 560 q 615 513 665 511 q 576 560 576 514 q 618 603 576 603 q 665 560 665 603 z "},"c":{"ha":1157,"x_min":28,"x_max":1125,"o":"m 1125 557 q 1047 479 1104 515 q 954 417 1000 447 q 969 301 969 371 q 965 185 969 347 q 914 175 951 175 q 813 185 878 175 q 733 196 736 196 q 581 0 724 164 q 431 192 526 64 q 265 169 367 169 q 210 175 226 169 q 213 419 201 249 q 139 454 179 422 q 72 501 86 494 q 48 528 68 511 q 28 561 28 546 q 44 593 28 578 q 72 618 69 613 q 146 668 97 629 q 221 715 190 703 l 221 722 q 213 806 222 742 q 203 897 203 869 q 213 942 203 929 q 442 922 333 942 q 586 1111 472 982 q 661 1035 611 1111 q 729 931 696 983 q 840 919 735 925 q 969 911 957 914 q 972 890 972 903 q 963 822 972 875 q 953 733 953 768 q 956 697 953 715 q 1032 644 976 688 q 1111 599 1078 608 l 1125 557 m 896 844 q 838 847 892 849 q 771 847 779 844 q 792 743 779 797 q 835 742 807 746 q 875 738 864 738 l 878 738 q 896 844 888 757 m 663 897 q 600 986 604 981 q 586 993 596 992 q 519 907 546 953 q 551 869 519 900 q 588 838 582 838 q 663 897 611 860 m 1018 554 q 1002 581 1017 568 q 973 603 988 593 q 925 631 958 614 q 865 558 908 603 q 929 488 896 524 q 1018 554 986 518 m 847 664 q 785 676 836 675 q 718 674 743 678 q 740 625 736 638 q 753 575 751 597 q 847 664 811 592 m 708 682 q 689 814 708 751 q 640 776 676 810 q 601 731 603 742 q 660 714 635 729 q 708 682 685 699 m 858 458 q 811 513 844 486 q 753 557 782 535 q 708 453 744 500 l 719 443 q 858 458 806 429 m 574 732 q 535 780 572 749 q 482 814 497 811 q 468 751 468 792 q 468 686 468 718 q 574 732 525 728 m 893 254 q 882 385 896 304 l 875 386 q 824 379 857 386 q 775 372 792 372 q 772 324 775 358 q 769 272 768 290 l 769 265 q 893 254 854 251 m 582 669 q 512 638 542 669 q 482 565 482 607 q 513 493 482 525 q 585 461 543 461 q 658 492 628 461 q 689 567 689 522 q 658 640 689 610 q 582 669 626 669 m 394 851 q 286 853 350 869 q 290 799 286 850 q 303 746 293 765 q 390 760 332 750 q 396 842 396 839 l 394 851 m 453 674 q 386 678 435 681 q 325 665 339 674 q 362 608 331 644 q 411 571 393 571 q 424 599 418 571 q 453 674 435 624 m 696 439 l 692 439 q 590 399 647 404 q 631 340 597 375 q 689 299 665 306 q 696 439 708 364 m 474 443 q 419 558 424 500 q 415 560 417 560 q 394 553 413 560 q 317 465 365 540 q 347 450 324 458 q 382 442 371 442 q 428 438 375 442 q 474 443 456 435 m 576 401 q 485 436 518 410 q 469 358 469 399 q 482 299 469 324 q 582 389 582 357 q 576 401 582 396 m 663 225 l 586 274 l 510 224 q 539 172 529 186 q 585 136 560 144 q 658 214 628 161 q 663 225 660 217 m 306 565 q 250 635 285 590 q 154 569 224 624 l 154 557 q 247 488 165 540 q 306 565 278 544 m 397 268 q 394 315 399 283 q 392 361 390 346 q 290 383 336 361 q 275 257 272 338 q 397 268 317 254 z "},"d":{"ha":1171,"x_min":28,"x_max":1144,"o":"m 1144 694 q 1099 603 1144 643 q 1001 564 1054 564 q 899 613 932 564 q 865 724 875 647 q 699 554 754 619 q 782 467 728 515 q 871 388 826 428 q 876 408 878 396 q 872 431 872 433 q 917 508 872 472 q 1004 544 961 544 q 1097 506 1058 544 q 1136 413 1136 467 q 1106 326 1136 356 q 1032 275 1068 300 q 1110 222 1078 260 q 1142 136 1142 183 q 1100 44 1142 83 q 1004 6 1058 6 q 911 44 944 6 q 868 138 886 74 q 826 65 847 101 q 724 0 783 0 q 627 40 671 0 q 583 133 583 81 q 631 236 583 199 q 744 267 679 274 l 750 279 q 578 443 667 369 q 421 275 490 357 q 524 240 483 271 q 571 144 571 204 q 422 3 571 3 q 344 46 383 3 q 300 129 304 89 q 265 63 282 96 q 160 4 229 4 q 67 49 107 4 q 28 146 28 94 q 68 233 28 201 q 164 267 108 265 l 171 272 q 81 315 126 294 q 33 408 33 343 q 72 504 33 463 q 165 546 111 546 q 300 388 293 546 q 469 547 368 457 q 397 632 471 561 q 306 711 328 699 q 174 563 283 563 q 80 599 119 563 q 40 690 40 636 q 190 832 40 803 q 110 864 150 849 q 39 976 39 900 q 78 1063 39 1022 q 163 1104 117 1104 q 264 1063 229 1104 q 306 961 289 1032 q 353 1051 321 1014 q 439 1097 392 1097 q 538 1060 497 1097 q 578 965 578 1022 q 421 832 578 865 l 581 675 q 750 840 690 753 q 669 871 710 856 q 613 911 628 886 q 594 1006 592 943 l 594 1013 q 644 1076 619 1044 q 721 1108 675 1108 q 863 999 828 1108 q 881 1028 872 1004 q 903 1056 890 1051 q 943 1093 914 1079 q 997 1111 971 1101 q 1135 974 1135 1085 q 1101 889 1135 922 q 1024 839 1081 868 q 1107 785 1083 807 q 1144 694 1144 747 z "},"e":{"ha":1160,"x_min":26,"x_max":1133,"o":"m 1133 558 q 1050 362 1133 442 q 850 285 967 282 l 850 271 q 772 79 851 158 q 579 0 692 0 q 383 85 467 0 q 308 282 300 169 l 304 286 l 292 286 q 105 365 183 285 q 26 554 26 446 q 108 749 26 669 q 306 826 190 828 l 308 828 l 308 842 q 388 1032 307 954 q 579 1110 468 1110 q 773 1027 694 1110 q 847 831 851 944 l 851 826 l 864 826 q 1054 751 975 831 q 1133 558 1133 671 m 1124 556 q 1053 628 1101 600 q 956 653 1006 656 q 850 817 953 758 q 767 646 832 715 q 594 569 696 572 l 594 583 q 667 749 586 678 q 840 828 736 807 q 674 939 797 918 q 571 1103 646 1086 q 483 938 494 1051 q 385 903 435 933 q 319 826 326 868 q 538 685 460 815 q 553 644 538 683 q 568 592 568 604 l 565 569 q 392 645 464 575 q 307 817 321 715 q 200 650 224 776 q 101 624 156 651 q 36 554 39 593 q 107 487 60 514 q 200 461 154 460 q 307 296 210 342 q 392 468 319 399 q 567 540 464 538 q 488 364 560 439 q 318 283 417 289 q 479 175 347 208 q 507 78 483 124 q 576 8 535 22 q 644 82 622 33 q 674 181 660 114 q 836 283 788 190 l 833 286 q 674 361 746 300 q 594 513 592 429 l 596 540 q 765 465 689 540 q 850 296 842 390 q 956 460 942 344 l 964 457 q 1057 485 1026 469 q 1124 556 1096 507 m 700 854 q 651 815 676 835 q 582 738 600 772 q 562 767 582 738 q 461 854 542 796 q 485 869 465 869 q 528 875 519 868 q 538 901 536 882 q 550 935 540 921 l 574 969 q 608 932 593 968 q 628 879 618 906 q 700 854 653 872 m 994 553 q 896 511 965 531 q 893 468 893 503 q 882 428 893 442 q 872 437 876 428 q 865 446 867 446 l 761 554 q 780 569 765 561 q 797 586 794 578 q 876 685 846 625 q 889 649 883 683 q 896 606 892 626 q 908 599 897 600 q 921 593 918 597 q 958 578 936 593 q 990 561 981 563 l 994 553 m 710 251 q 665 243 700 243 q 649 240 660 243 q 632 238 639 238 q 615 188 624 213 q 576 136 599 142 q 535 226 563 154 q 497 240 524 235 q 460 251 471 244 l 458 256 q 569 356 494 281 q 582 369 572 364 q 593 363 589 368 q 650 304 615 335 q 710 251 701 260 m 390 561 q 383 548 392 554 q 372 539 374 542 q 319 488 346 526 q 278 426 299 457 q 258 488 265 447 q 209 524 257 504 q 161 557 161 544 q 181 574 161 564 q 203 588 201 585 q 234 597 218 592 q 254 615 250 601 q 278 683 269 678 q 308 644 288 679 q 343 606 328 610 q 366 579 346 592 q 390 561 386 567 z "},"f":{"ha":1168,"x_min":28,"x_max":1140,"o":"m 1140 576 q 1102 467 1140 513 q 1001 421 1064 421 q 874 478 950 421 q 754 535 797 535 q 681 504 717 535 l 672 504 l 617 563 q 642 596 629 579 q 675 617 660 617 q 711 604 679 617 q 765 592 743 592 q 883 651 801 592 q 1021 711 964 711 q 1108 672 1075 711 q 1140 576 1140 632 m 718 999 q 660 869 718 949 q 603 742 603 789 q 629 668 603 706 q 608 638 624 653 q 578 608 592 622 q 519 663 558 626 q 551 750 551 701 q 497 865 551 799 q 443 981 443 931 q 482 1076 443 1042 q 582 1111 521 1111 q 676 1085 640 1111 q 718 999 718 1054 m 532 569 q 508 535 526 554 q 478 504 482 510 q 436 521 471 506 q 393 531 411 531 q 263 478 343 531 q 142 426 183 426 q 60 467 92 426 q 28 558 28 507 q 63 658 28 621 q 160 696 97 696 q 269 645 201 696 q 385 594 336 594 q 474 618 443 594 q 504 597 488 615 q 532 569 529 572 m 581 -1 q 476 33 515 -1 q 436 133 436 68 q 493 271 436 200 q 550 382 550 342 q 541 428 550 408 q 522 468 532 447 q 549 496 524 468 q 579 514 567 515 l 585 514 l 633 463 q 618 425 633 456 q 603 369 603 394 q 661 252 603 324 q 719 135 719 181 q 677 40 719 81 q 581 -1 635 -1 z "},"g":{"ha":1190,"x_min":28,"x_max":1163,"o":"m 1163 547 l 988 368 l 981 154 l 774 154 q 583 0 715 96 q 502 80 554 25 q 424 158 450 135 q 181 154 306 153 q 181 274 183 201 q 178 392 178 369 q 28 529 96 483 q 103 628 47 574 q 189 717 174 693 q 185 832 182 760 q 186 947 188 925 l 408 947 q 590 1111 467 1004 q 771 939 685 1014 q 814 946 803 946 q 989 940 829 946 l 996 708 q 1081 631 1032 682 q 1163 547 1142 565 m 929 550 l 860 610 q 883 635 863 619 q 914 667 904 651 q 931 736 931 694 q 890 847 931 807 q 778 888 849 888 q 656 825 689 888 q 617 848 640 826 q 582 872 594 869 l 524 811 q 499 833 515 813 q 464 864 482 854 q 389 882 435 882 q 289 844 329 882 q 249 747 249 807 q 331 615 249 660 q 299 575 321 597 q 261 538 264 540 q 285 507 267 525 q 310 481 304 489 q 249 363 249 429 q 290 267 249 310 q 386 224 332 224 q 453 242 425 224 q 504 288 478 265 q 551 246 522 276 q 599 204 581 215 q 672 276 621 231 q 804 211 717 211 q 897 258 861 211 q 931 360 931 301 q 899 442 931 410 q 865 481 867 474 q 901 511 897 507 q 929 550 921 529 m 792 556 q 749 526 779 543 q 706 499 718 510 q 692 506 703 499 q 675 513 682 513 q 658 501 671 513 q 646 485 646 489 q 654 472 646 481 q 663 456 663 464 q 630 408 663 450 q 586 357 597 367 q 554 400 578 365 q 531 440 531 435 q 540 457 531 446 q 549 475 549 468 q 533 493 542 483 q 513 500 524 503 q 485 483 499 483 q 442 512 485 483 q 390 543 399 540 l 390 550 q 486 617 483 617 q 508 606 496 617 q 525 596 519 596 q 547 609 533 596 q 561 631 561 622 q 529 663 529 649 q 563 706 551 674 q 586 757 578 747 q 658 658 608 722 q 649 637 657 650 q 639 615 640 624 q 652 602 642 614 q 669 590 663 590 q 685 603 675 590 q 706 615 694 617 q 792 556 744 576 m 596 599 q 540 561 560 599 q 553 515 549 521 q 596 497 563 497 q 646 538 646 497 q 596 599 646 599 z "},"h":{"ha":1160,"x_min":28,"x_max":1132,"o":"m 1132 575 q 1056 511 1115 549 q 969 456 1013 483 q 1019 368 975 449 q 1063 283 1063 288 q 1015 272 1063 272 q 872 272 892 274 q 860 81 867 188 l 854 81 q 774 121 839 81 q 701 167 738 143 q 647 92 688 160 q 594 0 621 46 q 489 163 535 81 q 410 117 464 153 q 326 79 361 86 q 317 174 318 104 q 313 275 315 225 l 297 286 q 114 289 160 282 q 200 464 169 374 q 110 517 169 478 q 28 578 44 560 q 110 628 35 581 q 189 678 186 675 q 143 756 176 696 q 106 832 106 824 q 163 844 119 844 q 208 842 178 844 q 253 840 239 840 q 297 850 288 840 q 286 1039 296 913 l 294 1050 q 354 1022 308 1040 q 410 989 393 1007 q 444 972 429 990 q 469 953 460 953 l 479 956 q 572 1110 511 1007 l 581 1111 q 626 1044 582 1111 q 679 961 671 976 q 768 1006 699 965 q 854 1058 829 1040 q 861 1000 861 1033 q 860 961 861 988 q 858 921 858 935 q 865 858 858 885 q 1054 853 1018 858 q 1010 756 1049 819 q 972 676 972 693 q 1043 626 972 665 q 1132 575 1124 582 m 857 843 q 781 806 844 843 q 693 758 711 764 q 693 753 693 756 q 736 665 693 749 q 790 572 779 582 q 879 626 797 579 q 950 681 950 665 q 907 767 950 692 q 857 843 864 843 m 674 756 q 674 947 681 854 q 492 939 613 946 q 486 840 486 914 q 493 749 486 760 q 569 751 522 747 q 646 757 626 757 q 674 756 661 757 m 957 456 q 794 553 879 499 q 744 465 783 538 q 704 385 704 393 q 775 332 704 374 q 860 289 846 290 q 957 456 890 346 m 472 742 q 306 836 415 771 q 254 752 301 824 q 207 676 207 681 q 285 625 207 669 q 378 575 353 586 q 428 654 403 614 q 472 742 471 728 m 688 183 q 689 214 689 197 q 685 276 689 235 q 682 340 682 318 q 683 369 682 356 q 500 378 640 382 q 490 325 490 356 q 496 256 490 318 q 493 186 500 213 q 621 172 535 172 q 688 183 674 172 m 475 389 q 429 472 460 424 q 378 553 404 513 q 292 509 358 549 q 222 456 226 469 q 271 376 233 429 q 317 297 304 328 q 475 389 393 342 z "},"i":{"ha":1165,"x_min":28,"x_max":1136,"o":"m 1136 350 q 1031 301 1125 319 q 874 290 946 285 q 864 183 874 289 q 832 18 856 69 q 697 81 767 35 q 576 168 685 88 q 332 0 447 3 q 299 138 303 29 q 300 275 299 128 l 290 288 q 154 290 222 289 q 28 332 72 296 q 103 456 43 379 q 176 565 164 533 q 111 649 138 613 q 32 796 43 743 q 307 829 150 833 q 318 990 313 910 q 369 1111 328 1122 q 579 974 499 1078 q 692 1047 613 1004 q 811 1093 772 1089 q 874 851 881 951 q 996 824 903 842 q 1121 782 1069 810 q 968 569 1090 681 q 1051 471 1010 519 q 1136 350 1132 372 m 754 758 q 742 951 754 938 q 656 901 713 942 q 593 838 593 858 q 620 788 593 821 q 650 736 647 756 l 754 758 m 783 742 q 766 694 774 728 q 749 646 758 661 q 849 586 847 586 q 914 633 872 586 q 956 706 956 681 q 879 732 956 721 q 783 742 819 742 m 975 401 q 917 482 954 419 q 849 554 882 536 q 758 489 819 532 q 772 388 763 456 q 968 394 839 379 l 975 401 m 422 951 q 394 813 394 857 q 401 758 394 783 q 517 736 496 736 q 540 782 521 750 q 558 831 558 814 q 542 864 558 850 q 422 951 503 897 m 374 736 q 217 717 290 743 q 265 640 240 679 q 335 589 301 589 q 375 601 349 589 q 401 625 401 613 q 374 736 401 638 m 754 363 q 703 375 738 369 q 654 385 668 381 q 627 349 642 374 q 604 314 613 324 q 662 229 613 279 q 744 175 711 179 q 754 363 758 275 m 524 385 l 419 363 q 429 188 413 244 q 511 243 451 197 q 571 304 571 289 q 524 385 571 300 m 417 503 q 329 560 388 522 q 256 488 292 538 q 192 404 204 417 l 192 392 q 338 372 306 372 q 394 388 382 372 q 417 503 397 447 z "},"j":{"ha":1151,"x_min":28,"x_max":1124,"o":"m 1124 556 q 1033 467 1079 511 q 963 372 965 396 q 965 308 964 346 q 968 151 964 257 l 894 156 q 835 157 861 157 q 718 138 751 157 q 667 83 704 129 q 571 0 631 38 q 471 97 518 46 q 421 144 435 136 q 353 156 400 156 q 194 150 344 156 q 186 299 186 185 q 135 436 186 378 q 28 544 81 490 l 28 561 l 175 714 q 175 822 179 758 q 171 929 171 911 l 175 943 q 364 949 339 946 q 454 989 417 954 q 565 1111 457 992 q 594 1094 578 1111 q 621 1075 610 1078 q 715 968 681 989 q 847 947 749 947 l 964 946 q 969 883 972 932 q 965 815 965 806 q 1007 679 965 731 q 1124 567 1065 624 l 1124 556 m 860 843 q 628 854 822 854 q 289 849 479 854 q 288 526 288 688 q 300 244 289 257 q 856 244 422 235 q 860 843 851 597 m 808 561 q 697 442 808 553 q 578 331 586 331 q 561 349 578 331 q 455 456 529 388 q 347 564 381 525 q 574 794 346 571 l 581 794 q 703 674 604 772 q 808 561 808 568 z "},"k":{"ha":1164,"x_min":28,"x_max":1136,"o":"m 1136 553 q 1060 474 1133 536 q 974 393 981 404 q 1014 247 1014 326 q 996 161 1014 199 q 872 128 944 128 q 736 168 792 128 q 647 88 728 168 q 560 0 604 44 q 415 169 510 54 q 285 140 343 140 q 189 158 213 140 q 157 254 157 182 q 171 333 157 275 q 185 393 185 392 q 28 557 131 446 q 190 725 81 614 q 160 867 160 779 q 250 974 160 974 q 336 963 279 974 q 418 953 393 953 l 576 1111 l 583 1111 q 667 1022 613 1078 q 750 950 739 950 q 813 965 768 950 q 883 979 858 979 q 976 961 935 979 q 1004 836 1004 918 q 974 718 1004 772 q 1136 553 975 711 m 932 553 l 932 567 q 836 663 896 596 q 886 797 886 729 q 878 849 886 824 q 828 858 856 858 q 753 842 792 858 q 685 811 719 826 l 593 904 q 478 806 557 869 q 317 854 413 857 q 303 853 304 854 q 289 842 301 853 q 288 789 288 847 q 333 658 288 717 q 283 604 317 635 q 231 553 243 567 q 275 500 244 531 q 322 450 313 464 q 276 311 276 388 q 281 269 276 290 q 318 256 294 256 q 399 274 358 256 q 471 303 454 299 l 572 200 l 583 200 q 683 303 583 200 q 751 278 700 300 q 825 260 792 260 q 882 269 854 260 q 889 321 889 294 q 839 450 889 389 l 932 553 m 783 574 q 740 519 776 542 q 675 501 710 501 q 649 469 649 501 q 596 365 649 404 q 539 400 565 367 q 510 463 517 429 q 500 482 507 481 q 476 481 507 481 q 372 549 419 481 q 418 606 378 583 q 490 625 453 625 q 510 647 510 625 q 568 763 510 717 q 622 725 597 757 q 647 664 647 693 q 700 631 647 650 q 783 574 763 608 m 636 575 q 581 614 636 614 q 542 599 560 614 q 524 561 524 583 q 542 520 524 538 q 583 503 560 503 q 621 527 606 503 q 636 575 636 551 z "},"l":{"ha":1186,"x_min":24,"x_max":1157,"o":"m 1157 585 l 1151 579 q 872 839 1101 628 q 604 1104 700 999 l 608 1111 l 876 1111 l 886 1104 l 889 853 l 901 843 l 1153 843 l 1157 585 m 582 1107 q 450 971 515 1039 q 307 846 371 892 q 311 1111 306 935 q 582 1107 401 1113 m 1153 272 l 892 272 l 881 257 l 881 4 q 606 4 743 -4 q 864 274 671 89 q 1147 542 1006 408 l 1153 542 l 1153 272 m 736 428 q 728 397 725 417 q 732 364 732 358 q 694 263 732 304 q 596 222 656 222 q 499 260 540 222 q 457 353 457 297 q 463 390 457 367 q 471 428 469 419 q 456 432 465 432 q 426 425 447 432 q 394 418 406 418 q 294 456 333 418 q 254 556 254 494 q 297 653 254 617 q 401 690 340 690 q 435 684 414 690 q 465 678 457 678 q 476 683 472 678 q 458 767 458 726 q 501 855 458 819 q 597 890 543 890 q 691 852 650 890 q 732 763 732 814 q 707 674 732 717 q 717 672 711 672 q 746 681 726 672 q 779 689 765 689 q 888 653 846 689 q 929 553 929 618 q 792 422 929 422 q 736 428 764 422 m 296 838 l 50 582 l 40 579 q 28 585 32 579 l 28 835 l 38 843 q 296 838 124 846 m 585 7 l 578 0 l 311 0 l 301 7 l 299 258 l 286 268 q 160 263 286 268 q 35 268 85 260 q 31 549 24 369 q 585 7 78 519 m 658 554 q 590 650 638 586 q 565 603 585 642 q 529 564 551 574 q 597 476 553 535 q 626 520 611 497 q 658 554 640 543 z "},"m":{"ha":1167,"x_min":29,"x_max":1139,"o":"m 1139 3 q 822 8 1118 8 q 597 225 804 26 q 604 235 599 232 q 613 235 607 236 q 624 233 622 233 q 700 278 668 233 q 729 364 729 318 q 714 414 729 394 q 685 451 686 449 l 692 453 q 726 436 701 453 q 775 419 750 419 q 862 454 821 419 q 903 533 903 489 q 774 661 903 661 q 730 651 753 661 q 700 642 707 642 q 688 649 693 642 q 706 725 706 683 q 683 813 706 782 q 638 849 669 832 q 600 878 607 865 q 719 988 660 933 q 831 1106 790 1054 q 975 1108 882 1104 q 1119 1111 1076 1113 l 1128 1103 q 1131 932 1132 1046 q 1133 763 1131 818 q 1022 664 1086 725 q 917 558 969 611 l 917 539 q 1139 324 988 464 l 1139 3 m 621 463 q 544 488 565 472 q 518 558 518 508 q 557 619 519 594 q 619 640 589 640 q 679 610 654 640 q 704 546 704 581 q 679 489 704 508 q 621 463 668 482 m 586 874 q 506 826 546 864 q 467 751 467 789 q 482 688 467 728 q 499 629 497 647 q 399 665 450 665 q 269 553 314 665 q 44 771 196 628 l 44 1092 q 190 1100 50 1097 q 357 1103 274 1101 q 472 989 392 1064 q 586 874 549 915 m 586 229 q 481 108 544 175 q 364 6 404 29 q 200 4 306 8 q 36 0 85 -1 q 29 24 29 7 q 36 296 29 40 q 149 414 92 356 q 269 522 214 481 q 403 414 317 414 q 464 431 438 414 q 493 449 490 449 l 507 439 q 483 357 483 397 q 586 229 483 268 m 1004 949 q 978 956 997 957 q 953 960 960 956 q 882 829 906 918 q 937 858 903 832 q 993 886 971 883 l 1004 949 m 301 850 q 251 924 286 875 q 206 944 232 946 q 211 889 206 921 q 249 863 219 876 q 294 849 279 849 l 301 850 m 1008 163 q 1013 188 1013 176 q 957 233 1013 224 q 874 257 886 246 l 865 246 l 944 150 l 954 150 q 1008 163 981 149 m 297 249 q 218 194 267 235 q 213 169 213 172 q 222 158 213 158 q 269 192 253 158 q 297 249 296 246 z "},"n":{"ha":1169,"x_min":10,"x_max":1144,"o":"m 1142 1097 l 1138 578 l 1125 578 l 981 729 q 981 936 981 924 q 974 956 981 949 q 757 958 901 956 l 614 1101 l 615 1110 q 1138 1104 792 1100 l 1142 1097 m 993 558 q 908 501 964 510 q 896 446 900 489 q 778 453 838 449 q 676 503 708 461 l 651 503 q 640 482 640 503 l 643 464 q 690 360 675 426 q 713 246 701 303 q 688 243 704 240 q 663 246 661 246 q 626 208 654 246 q 586 156 592 163 l 576 156 q 542 190 560 172 q 524 228 524 207 q 488 241 517 235 q 450 246 460 247 l 449 251 q 485 367 449 285 q 522 469 522 450 q 490 501 522 501 q 388 465 464 501 q 279 429 311 429 q 268 432 272 429 q 268 456 265 440 q 271 478 271 475 q 228 517 271 486 q 169 564 179 550 q 213 600 181 586 q 267 624 240 613 q 274 706 265 669 q 385 667 353 679 q 490 618 458 640 l 519 638 q 496 686 515 657 q 472 731 476 715 q 461 803 468 746 q 438 875 456 846 q 456 885 444 883 q 475 885 463 886 q 496 883 492 883 q 589 975 535 922 q 651 883 608 943 q 708 875 692 883 q 690 771 704 865 q 651 675 681 707 l 646 640 q 674 625 658 625 q 710 638 688 625 q 740 653 733 650 q 819 665 757 657 q 896 688 868 672 q 901 661 903 678 q 899 632 899 625 q 938 600 899 624 q 993 558 982 572 m 428 963 q 209 960 222 961 q 189 953 196 960 l 188 725 q 33 576 179 715 q 29 840 26 682 q 33 1104 33 1104 l 38 1111 q 306 1114 10 1111 q 574 1107 468 1117 q 575 1106 575 1107 q 428 963 575 1103 m 1139 7 l 1132 0 q 596 3 893 4 l 592 7 l 746 160 q 971 167 821 157 q 981 274 982 183 q 983 394 978 375 l 1132 536 q 1144 342 1144 469 q 1142 165 1144 289 q 1139 7 1138 56 m 561 7 q 33 10 368 7 l 28 15 l 31 546 q 32 551 31 549 q 183 400 35 551 q 182 176 182 360 l 192 167 q 418 161 268 167 q 561 7 468 113 m 611 565 q 600 585 611 565 q 583 596 594 596 q 563 585 575 596 q 550 564 550 574 q 575 531 550 531 q 606 542 603 531 q 611 565 608 553 z "},"o":{"ha":1133,"x_min":26,"x_max":1106,"o":"m 1106 544 l 954 389 l 954 189 q 907 176 944 176 q 841 181 883 176 q 790 186 799 186 q 665 115 743 186 q 565 0 601 57 q 458 99 501 43 q 396 157 422 146 q 231 176 351 176 q 172 185 194 176 l 167 417 l 26 572 q 172 729 36 583 l 176 917 q 297 922 199 922 q 443 981 383 922 q 556 1111 500 1046 l 735 933 q 944 926 757 929 q 954 874 953 904 q 953 819 956 854 q 950 765 950 781 q 1022 646 950 682 q 1071 601 1029 636 q 1106 551 1106 574 l 1106 544 m 929 424 q 799 558 890 478 l 799 572 q 906 685 868 629 q 732 694 833 708 q 708 796 703 729 q 707 903 715 878 l 575 771 q 496 840 556 783 q 410 899 449 885 q 400 838 401 872 q 400 772 399 814 q 401 708 401 725 q 211 690 381 690 q 269 622 229 658 q 336 563 303 592 l 336 549 q 265 489 276 500 q 221 413 224 449 q 307 414 254 411 q 390 417 371 417 q 403 318 399 417 q 410 199 407 208 q 479 264 436 217 q 547 331 522 311 q 636 264 592 297 q 717 189 688 224 q 715 385 715 208 q 807 418 715 418 q 871 415 832 418 q 915 413 910 413 l 929 424 m 572 354 q 435 421 496 354 q 375 565 375 488 q 428 688 375 635 q 561 739 481 740 q 683 691 636 738 q 729 565 729 644 q 693 424 729 482 q 572 354 651 354 z "},"p":{"ha":1157,"x_min":28,"x_max":1131,"o":"m 868 828 q 841 791 868 808 q 794 774 814 774 q 815 818 797 793 q 850 843 833 843 q 868 828 868 843 m 592 869 q 573 892 585 868 q 561 936 561 917 q 581 958 561 958 q 604 928 604 958 q 592 869 604 910 m 983 556 q 956 533 982 533 q 916 542 938 533 q 894 557 894 551 q 975 569 936 575 l 983 556 m 353 783 q 317 797 340 783 q 289 829 289 813 q 306 850 289 850 q 338 825 319 850 q 356 788 356 800 q 353 783 356 783 m 1031 585 q 990 633 1022 633 q 962 631 982 633 q 929 628 942 628 l 893 651 l 875 647 l 861 600 q 803 560 817 592 l 832 524 l 863 514 l 868 478 l 894 460 q 947 492 910 492 q 970 490 954 492 q 994 489 986 489 q 1033 529 1036 489 q 1097 508 1063 529 q 1131 460 1131 486 q 1053 360 1131 379 q 1069 299 1069 314 q 1045 247 1069 272 q 990 221 1021 221 q 921 261 947 221 l 939 276 l 939 288 q 910 333 939 311 q 867 372 872 361 l 872 394 l 857 407 l 817 392 l 814 381 q 778 400 790 397 q 735 400 768 401 l 732 379 q 753 324 732 354 l 726 292 l 738 261 l 779 263 q 812 233 794 263 q 847 203 829 203 q 878 214 861 203 q 911 143 911 174 q 889 90 911 117 q 836 63 867 63 q 772 79 815 63 q 692 0 743 0 q 603 101 615 0 l 625 101 q 653 143 653 119 q 649 167 653 149 q 646 199 646 186 q 672 233 669 231 q 674 253 674 236 q 649 272 651 272 q 622 268 646 274 q 579 331 608 331 q 533 268 553 331 l 500 267 l 482 235 l 513 194 l 501 146 l 517 101 q 543 100 542 99 q 549 107 544 100 l 554 101 q 528 36 553 69 q 472 3 503 3 q 376 82 396 3 q 317 65 351 65 q 271 79 289 65 q 242 144 242 103 q 279 217 242 193 q 295 198 293 199 q 306 196 297 197 q 357 233 328 196 q 406 269 386 269 q 422 265 414 269 l 429 297 l 404 321 q 419 400 426 353 q 394 403 397 403 q 356 389 389 403 l 349 386 l 317 408 l 285 397 l 288 378 q 252 328 288 349 q 217 297 217 307 q 238 254 217 297 q 169 224 211 224 q 113 243 136 224 q 82 301 82 268 q 101 363 82 329 q 28 444 28 388 q 56 509 28 486 q 125 529 83 532 l 138 494 q 171 485 150 485 q 231 493 169 485 l 240 492 l 263 461 l 292 483 l 299 517 q 356 550 315 515 q 333 587 356 569 q 292 599 311 604 l 289 633 l 258 654 q 221 625 233 625 q 200 631 217 625 q 165 638 183 638 q 132 624 165 638 l 124 585 q 58 612 88 585 q 29 674 29 639 q 104 760 29 747 q 92 818 92 806 q 116 872 92 850 q 172 894 140 894 q 239 860 207 894 l 219 840 l 228 811 q 276 774 251 792 q 288 715 292 758 l 333 717 l 347 731 q 386 713 386 713 l 424 717 l 426 738 q 406 789 426 738 q 417 800 417 797 q 428 838 418 803 l 418 854 l 379 850 q 350 886 361 850 q 314 922 339 922 q 269 910 296 922 q 246 974 246 939 q 319 1047 246 1047 q 383 1042 338 1047 q 467 1111 404 1111 q 528 1081 501 1111 q 554 1014 554 1050 l 524 1014 l 506 985 l 513 926 l 489 881 l 497 853 q 529 846 504 846 q 543 821 543 846 l 582 782 q 626 846 622 800 l 653 843 l 675 878 l 647 907 q 650 944 646 921 q 654 978 654 968 q 610 1018 654 1015 q 635 1079 611 1054 q 694 1104 660 1104 q 748 1083 725 1104 q 775 1032 771 1063 q 831 1050 815 1050 q 891 1024 867 1050 q 915 964 915 999 q 885 897 915 928 q 847 917 847 917 q 799 879 824 917 q 735 846 775 842 l 728 815 l 751 789 l 733 744 l 742 710 l 767 710 q 811 728 767 710 q 867 706 821 708 q 899 776 868 742 q 931 829 931 811 q 922 860 931 843 q 990 888 956 888 q 1053 854 1028 888 q 1069 813 1069 832 q 1053 753 1069 804 q 1129 669 1129 732 q 1038 585 1129 585 l 1031 585 m 869 256 q 858 251 865 251 q 818 285 842 251 q 796 325 796 314 q 801 329 796 329 q 845 306 818 329 q 869 256 872 282 m 578 144 q 560 174 560 144 q 567 219 560 190 q 575 253 571 236 l 578 253 q 597 174 597 207 q 578 144 597 144 m 264 558 q 233 543 264 550 q 196 538 210 538 q 164 556 164 538 q 172 569 164 563 q 188 576 181 576 q 231 569 197 576 q 264 558 264 561 m 358 333 q 360 326 360 331 q 339 288 360 310 q 301 265 318 265 q 286 275 292 265 q 311 314 286 300 q 358 333 335 324 m 726 619 q 743 675 743 653 q 685 725 743 725 q 640 699 668 725 q 643 617 639 668 q 715 614 668 617 q 728 610 725 613 q 671 550 706 593 l 724 496 q 649 483 693 492 q 646 458 649 476 q 643 429 643 439 q 644 413 643 421 q 686 392 678 392 q 709 397 694 392 q 732 403 724 403 q 749 447 749 424 q 726 496 749 464 q 772 517 750 507 q 790 563 790 529 q 726 619 790 606 m 635 714 q 618 756 635 738 q 578 774 601 774 q 538 752 553 774 q 525 704 522 731 l 517 700 q 501 713 514 700 q 469 726 489 726 q 427 708 444 726 q 410 664 410 690 q 419 636 410 646 q 436 615 433 621 q 364 560 364 610 q 440 499 364 499 q 483 553 483 543 q 463 579 483 557 q 440 610 443 601 q 474 617 447 617 q 510 624 501 618 q 513 690 514 646 l 519 699 q 585 644 538 676 q 635 714 635 683 m 579 586 q 549 556 549 586 q 578 521 549 521 q 611 561 611 521 q 579 586 611 586 m 639 396 q 588 456 639 413 q 526 408 585 456 q 525 399 525 403 q 543 359 525 375 q 585 343 561 343 q 622 360 604 343 q 639 396 639 376 m 510 489 q 500 489 504 489 q 478 488 493 489 q 457 486 464 486 q 448 488 454 486 q 439 490 442 490 q 414 446 414 490 q 479 388 414 388 q 503 401 485 388 q 522 418 522 414 q 510 489 522 446 z "},"q":{"ha":1154,"x_min":19,"x_max":1124,"o":"m 556 886 q 446 999 547 899 q 358 1100 358 1086 q 757 1111 482 1099 q 556 886 692 1035 m 1124 346 q 918 547 1033 438 q 911 542 915 544 q 910 475 910 533 q 910 236 910 488 l 608 236 l 596 250 q 893 539 794 429 q 718 714 806 626 q 571 878 568 865 q 743 886 636 886 q 915 886 907 886 q 921 742 922 879 q 918 576 918 568 q 1014 661 925 576 q 1124 765 1069 713 l 1124 346 m 740 564 q 713 513 742 531 q 644 496 683 496 q 625 472 625 496 q 625 457 625 468 q 626 440 626 446 q 567 392 626 392 q 496 478 496 392 q 449 514 496 504 q 403 557 403 524 q 428 610 404 596 q 493 625 439 615 q 511 694 494 661 q 561 733 532 733 q 618 703 590 732 q 646 646 646 675 q 642 628 646 636 q 740 564 738 621 m 551 869 q 265 556 460 761 q 144 457 235 551 q 40 343 92 400 l 28 343 q 28 765 19 558 q 131 682 39 768 q 242 576 186 629 q 249 600 249 583 q 249 883 249 617 l 539 881 l 551 869 m 564 233 l 257 236 q 257 539 250 389 q 418 392 272 539 q 564 233 564 246 m 801 7 l 369 8 q 585 233 443 82 q 801 7 657 174 z "},"r":{"ha":1182,"x_min":28,"x_max":1154,"o":"m 1154 554 q 1113 485 1153 522 q 1033 413 1072 449 q 993 318 993 368 l 997 313 q 992 164 997 226 q 778 164 992 164 q 686 82 757 164 q 600 0 615 0 q 517 71 583 0 q 432 163 436 158 q 207 171 357 163 q 204 383 203 349 q 28 558 117 469 q 119 643 49 582 q 206 731 178 693 l 210 965 q 449 967 214 968 q 528 1047 453 969 q 606 1111 589 1111 q 742 968 651 1051 l 943 965 q 1001 847 1001 964 q 999 778 1001 825 q 997 714 996 732 q 1154 554 1050 663 m 1015 550 q 904 671 976 589 q 899 865 906 736 l 717 871 q 658 925 696 886 q 599 981 621 964 q 481 871 561 943 l 297 871 q 296 688 297 858 q 178 564 256 647 q 296 438 218 522 q 290 370 296 413 q 285 314 285 328 q 351 258 285 258 q 436 257 429 258 q 503 219 492 250 q 600 132 540 178 q 667 192 626 153 q 731 256 714 240 q 899 264 865 253 q 903 438 897 322 q 959 494 919 458 q 1015 550 999 529 m 781 556 q 876 451 814 522 q 789 453 875 451 q 713 444 718 453 q 708 279 713 390 q 603 379 701 281 q 546 332 593 378 q 486 274 489 275 q 482 450 486 347 q 319 460 428 451 q 364 511 319 465 q 415 568 408 557 q 318 681 381 604 q 479 686 324 686 l 485 690 q 486 778 485 735 q 494 850 488 847 q 596 740 544 803 l 600 740 q 711 849 600 740 q 719 682 707 694 q 883 678 864 678 q 832 617 883 669 q 781 556 781 564 z "},"s":{"ha":1160,"x_min":28,"x_max":1132,"o":"m 1132 565 l 1128 561 q 1058 639 1106 594 q 983 714 999 694 q 981 940 981 789 q 910 957 951 957 q 833 949 885 957 q 756 940 781 940 q 600 1099 707 997 l 439 940 q 314 940 447 940 q 206 925 217 940 q 204 865 204 900 q 201 710 204 814 q 35 557 146 658 l 28 557 l 31 1115 q 353 1108 31 1107 q 1128 1110 1010 1110 l 1132 565 m 965 550 q 844 425 956 542 l 842 297 l 835 290 l 700 290 q 644 238 688 281 q 582 194 610 206 q 481 285 549 225 l 332 290 l 325 300 l 322 449 l 224 542 l 224 554 q 275 610 243 571 q 328 665 307 650 l 329 801 q 435 807 350 807 q 517 863 472 807 q 574 918 561 918 q 632 869 581 918 q 699 810 689 815 l 839 810 q 843 719 843 792 q 879 625 843 664 q 965 550 922 588 m 1132 8 q 696 -7 1067 -7 q 35 0 525 -7 q 29 4 32 1 q 28 121 28 17 q 28 538 28 99 l 35 538 q 199 383 47 526 q 194 261 196 351 q 199 154 193 158 l 431 154 l 585 6 q 658 74 592 6 q 740 157 700 115 l 983 161 q 978 392 983 181 l 1126 542 l 1128 553 l 1132 8 m 797 554 q 739 604 797 588 q 657 617 694 618 q 651 708 657 683 q 594 775 639 763 q 532 713 544 747 q 525 628 525 694 q 517 614 525 614 q 495 617 510 614 q 474 621 481 621 q 401 601 438 621 q 358 544 358 578 q 406 494 358 518 q 476 472 446 472 q 513 481 496 472 q 521 431 521 468 q 542 374 521 403 q 592 344 564 346 q 643 401 633 368 q 649 478 649 421 q 657 488 649 485 q 699 482 678 482 q 764 503 731 482 q 797 554 797 524 z "},"t":{"ha":1151,"x_min":28,"x_max":1124,"o":"m 1124 272 l 857 272 l 849 257 l 849 28 q 839 22 844 22 q 592 264 832 22 l 592 269 l 853 272 l 853 542 l 842 556 l 572 288 q 435 415 521 329 q 300 544 344 507 l 292 529 l 292 288 l 304 272 l 429 274 l 554 269 l 292 0 l 289 0 q 282 131 279 50 q 282 261 283 233 l 276 268 q 28 272 72 265 q 293 549 163 419 q 28 824 204 639 l 289 824 l 292 572 l 315 569 q 554 817 396 653 l 549 828 q 421 832 535 828 q 293 831 343 836 q 289 1111 288 943 l 297 1111 l 561 843 l 588 839 l 839 1096 l 842 1096 l 844 844 l 853 836 q 1114 832 853 836 q 983 693 1049 763 q 853 572 876 583 l 849 828 l 842 832 l 593 831 l 588 815 q 718 690 633 775 q 849 567 803 606 q 974 433 847 556 q 1124 292 1049 363 l 1124 272 m 618 565 q 586 567 594 565 l 585 582 q 557 696 588 696 l 551 693 q 536 564 539 667 q 496 567 550 564 q 436 564 458 568 q 406 546 406 560 l 406 542 q 467 525 426 525 q 533 525 532 525 q 542 463 542 515 q 569 393 542 399 q 586 455 590 413 q 593 514 582 497 q 668 521 631 518 q 729 543 729 528 q 681 567 729 564 q 618 565 703 565 z "},"u":{"ha":1163,"x_min":28,"x_max":1135,"o":"m 1135 290 q 1000 149 1099 246 q 869 6 911 63 l 254 0 q 149 113 221 43 q 40 224 71 186 l 28 228 l 28 832 q 168 968 88 883 q 304 1111 236 1040 l 854 1111 q 994 977 896 1061 q 1135 844 1093 893 l 1135 290 m 983 392 l 983 700 l 975 713 q 882 622 944 696 q 815 544 819 547 l 971 392 l 983 392 m 971 726 q 856 861 972 749 q 717 974 739 974 l 401 969 q 165 726 357 928 q 281 724 213 719 q 396 731 339 726 l 393 943 l 401 953 l 561 801 l 576 801 q 732 961 626 856 l 744 953 l 744 733 l 758 726 l 971 726 m 954 357 l 954 371 l 758 371 q 740 301 740 344 q 744 253 740 285 q 747 207 747 221 q 732 161 747 174 q 572 311 682 214 q 422 151 519 261 q 758 156 643 140 l 954 357 m 393 353 l 385 361 l 186 365 l 178 374 q 250 458 199 408 q 325 542 306 514 l 171 700 l 163 700 l 157 378 q 275 256 215 317 q 388 156 376 154 l 393 353 z "},"v":{"ha":1156,"x_min":28,"x_max":1128,"o":"m 1128 546 q 988 440 1039 513 q 938 272 938 367 q 954 168 938 221 q 881 179 925 167 q 810 192 838 192 q 753 183 783 192 q 578 0 625 151 q 510 92 529 69 q 436 160 474 136 q 294 197 376 197 q 196 179 240 197 q 214 300 214 271 q 200 382 214 339 q 136 475 182 435 q 28 550 106 501 q 178 676 88 569 q 197 790 197 704 q 175 919 197 882 l 175 932 q 314 903 246 903 q 421 925 372 903 q 574 1111 535 978 q 667 993 590 1060 q 744 933 724 942 q 844 913 790 913 q 965 950 919 913 q 939 804 939 853 q 975 679 939 776 q 1128 546 1067 569 m 567 721 q 446 673 490 721 q 401 546 401 625 q 453 423 401 475 q 576 371 506 371 q 699 421 649 371 q 749 542 749 471 q 697 671 749 621 q 567 721 646 721 z "},"w":{"ha":1219,"x_min":29,"x_max":1190,"o":"m 1110 808 q 975 707 1067 772 l 831 707 l 826 711 q 871 857 826 713 q 1010 951 917 890 q 1088 897 1063 928 q 1110 808 1099 868 m 886 1049 q 865 976 882 1022 q 843 907 847 931 q 692 794 785 853 q 640 946 676 846 q 683 1103 653 1039 q 804 1110 688 1111 l 886 1049 m 1190 557 q 1179 506 1190 536 q 1160 458 1169 482 l 1003 458 q 868 554 990 467 q 931 614 872 571 q 1006 657 990 657 q 1044 653 1019 657 q 1160 650 1069 650 q 1190 557 1190 575 m 532 806 q 463 840 515 806 q 396 892 421 869 q 346 1056 378 946 q 422 1111 394 1086 l 531 1111 q 562 1035 542 1094 q 582 957 582 976 q 560 884 582 953 q 532 806 538 815 m 1115 311 q 1093 247 1107 300 q 1051 193 1085 213 q 992 154 1033 175 q 863 251 950 189 q 835 331 858 263 q 811 404 811 399 q 818 413 811 413 l 981 410 q 1047 363 983 410 q 1115 311 1110 317 m 906 460 q 782 456 881 456 q 750 446 750 456 q 750 431 750 424 q 789 307 764 390 q 661 390 749 338 q 636 326 656 386 q 610 249 614 257 q 581 307 599 249 q 561 376 571 342 l 553 383 l 433 297 q 453 375 438 328 q 476 451 472 435 l 472 456 q 332 460 346 460 q 396 508 335 461 q 449 553 449 547 q 332 642 449 561 l 467 646 l 475 653 q 429 794 457 700 q 447 790 440 794 q 557 711 454 786 q 611 863 575 761 q 640 794 617 860 q 669 714 667 719 q 736 750 699 722 q 797 794 786 789 q 750 650 778 717 l 757 644 l 897 644 l 779 553 q 906 460 818 521 m 404 711 l 400 707 q 247 710 349 707 q 176 758 240 710 q 111 817 111 807 q 117 836 111 824 q 122 856 122 849 q 151 914 122 886 q 207 954 157 918 q 294 906 232 954 q 360 835 357 858 q 404 711 375 785 m 858 53 q 789 4 856 50 l 685 4 q 636 154 678 15 q 690 314 650 208 l 703 311 q 771 261 738 286 q 822 197 813 232 q 858 53 844 129 m 357 550 l 233 464 l 63 464 q 44 510 53 479 q 29 554 35 542 q 56 653 39 588 l 65 660 q 219 660 117 664 q 357 558 267 628 l 357 550 m 521 4 q 479 3 506 6 q 436 0 446 0 q 351 50 392 0 q 390 182 371 117 q 422 226 399 208 q 524 307 511 296 q 555 235 535 296 q 575 156 575 175 q 551 83 575 149 q 521 4 528 18 m 407 408 q 357 244 393 351 q 297 199 356 240 q 228 150 244 160 q 201 163 215 150 q 178 182 183 179 q 128 239 138 200 q 106 314 110 307 l 240 410 q 286 422 258 422 q 333 417 301 422 q 380 413 364 413 q 407 408 396 413 m 764 553 q 740 569 763 554 q 724 589 724 582 q 730 612 724 597 q 735 635 736 626 l 735 638 l 683 638 q 669 667 678 642 q 656 688 663 688 q 637 676 649 688 q 622 665 625 665 q 567 693 608 665 q 554 650 561 686 q 506 638 551 638 q 489 633 496 638 q 504 583 493 617 q 469 556 490 568 q 486 537 471 547 q 506 521 501 526 q 489 463 503 508 q 539 460 506 461 q 553 434 546 460 q 564 403 560 408 q 607 432 585 414 l 610 433 q 634 422 619 433 q 656 410 649 411 q 674 456 671 453 q 713 460 678 460 q 728 463 718 460 q 715 507 715 503 q 738 532 715 519 q 764 553 760 544 z "},"x":{"ha":1024,"x_min":24,"x_max":999,"o":"m 999 275 q 758 136 917 221 q 518 0 589 44 q 270 131 496 -8 q 28 294 44 269 q 28 557 32 389 q 25 818 24 742 q 264 969 117 886 q 510 1111 386 1040 q 765 972 539 1107 q 999 818 990 836 l 999 275 m 904 550 q 904 640 904 581 q 906 731 906 700 q 871 800 906 771 q 798 843 850 818 q 728 883 746 868 q 722 817 722 853 q 727 731 722 788 q 732 646 732 674 q 904 550 788 611 m 690 913 q 510 1013 629 946 q 407 963 422 969 q 310 903 350 932 q 401 842 356 872 q 492 797 471 797 q 594 848 510 797 q 690 913 679 899 m 918 333 l 908 499 q 738 394 850 476 l 742 224 q 833 272 788 249 q 918 333 888 301 m 700 428 q 704 481 704 451 q 699 560 704 508 q 694 636 694 613 l 490 754 l 324 656 q 318 568 318 621 q 319 500 318 553 q 319 432 319 458 q 414 369 356 403 q 514 313 464 342 q 700 428 632 372 m 276 660 q 276 776 276 654 q 267 879 276 840 q 96 775 169 831 l 100 561 q 276 660 179 594 m 660 176 q 626 206 656 193 q 585 232 593 222 q 522 271 551 271 q 442 231 492 271 q 361 181 386 186 q 428 133 383 165 q 456 103 442 118 q 494 89 471 89 q 576 128 525 89 q 660 176 633 171 m 290 251 l 279 404 l 106 508 l 96 493 l 106 336 q 274 228 272 228 q 290 251 278 228 z "},"y":{"ha":1163,"x_min":28,"x_max":1135,"o":"m 858 0 q 718 131 846 3 q 567 260 590 260 q 436 144 551 260 q 300 3 350 57 q 151 147 225 75 q 31 285 31 265 q 160 419 71 332 q 289 554 249 507 q 28 843 28 804 q 167 985 50 868 q 297 1111 292 1111 q 444 976 317 1111 q 594 842 572 842 q 710 951 603 842 q 838 1085 774 1018 q 1124 817 932 993 q 989 678 1094 789 q 871 543 878 558 q 1135 288 965 460 q 858 0 1135 251 m 750 832 q 692 807 719 832 q 647 758 681 797 q 614 781 638 760 q 581 801 590 801 q 542 772 568 801 q 510 742 515 742 q 497 756 500 742 q 493 775 494 765 q 451 812 483 796 q 392 828 418 828 q 328 794 354 828 q 301 722 301 761 q 325 663 301 690 q 379 628 349 636 q 358 586 379 610 q 326 549 331 556 q 353 513 331 535 q 379 476 375 492 q 289 378 289 435 q 297 333 289 361 q 392 264 318 264 q 501 351 468 264 q 536 326 518 344 q 565 296 550 311 q 607 322 585 301 q 647 354 635 347 q 690 303 668 328 q 757 279 713 279 q 828 310 794 279 q 863 376 863 340 q 840 443 863 418 q 786 485 829 456 q 833 543 797 508 q 806 578 829 553 q 783 610 783 603 q 801 636 783 622 q 838 669 828 657 q 857 740 857 697 q 822 803 857 775 q 750 832 786 832 m 711 543 q 642 463 696 517 q 565 403 583 403 l 429 538 q 563 676 461 589 q 711 543 583 676 z "},"z":{"ha":1176,"x_min":28,"x_max":1149,"o":"m 1149 0 l 736 0 q 835 232 753 136 q 1033 386 897 306 l 1033 393 q 911 325 1001 393 q 811 236 832 264 q 718 0 732 131 l 28 0 l 28 418 q 263 318 153 406 q 421 117 367 236 l 428 117 q 278 332 417 232 q 28 439 154 422 l 28 1111 l 447 1111 q 347 883 429 988 q 150 732 265 778 l 157 719 q 365 875 278 767 q 465 1111 451 983 l 1149 1111 l 1149 696 q 854 854 963 724 q 760 996 807 925 q 750 982 750 992 q 904 783 750 889 q 1146 674 1040 690 l 1149 0 m 1029 789 q 1024 986 1029 856 q 869 990 950 988 q 831 986 853 992 q 847 944 829 971 q 1029 789 929 817 m 1110 1057 l 1104 1063 l 525 1063 q 518 1053 515 1063 l 1097 1042 q 1099 842 1097 885 q 1100 774 1100 800 q 1107 764 1100 764 q 1110 1057 1111 832 m 799 810 q 701 967 729 897 q 664 988 693 988 q 614 986 614 986 l 614 971 q 653 857 653 924 q 650 815 653 838 q 721 822 692 822 q 765 815 740 822 q 792 808 789 808 q 799 810 792 808 m 1026 571 q 1026 649 1033 604 q 932 699 979 674 q 847 761 879 729 q 854 689 854 701 q 833 622 854 646 q 1026 571 956 624 m 785 757 q 757 760 771 760 q 699 743 728 760 q 665 697 665 725 q 682 657 665 689 q 725 642 713 642 q 772 672 751 642 q 792 733 792 703 q 785 757 792 749 m 578 881 q 563 844 563 878 q 582 774 563 797 q 604 850 604 821 q 578 881 604 879 m 794 551 q 860 532 822 532 q 892 556 892 532 q 856 569 892 569 q 794 551 810 569 m 550 982 q 492 982 531 986 q 385 813 435 868 l 385 806 q 518 818 460 831 q 517 857 517 839 q 531 946 517 911 q 551 978 539 965 q 550 982 551 981 m 1033 461 l 1026 536 q 869 479 929 479 q 847 481 858 479 q 853 431 853 457 q 826 333 853 374 q 956 422 868 365 q 1033 461 983 433 m 1117 49 q 1118 203 1117 92 q 1121 381 1121 321 q 1107 622 1121 542 l 1104 618 l 1104 68 l 1093 60 l 817 60 q 805 54 811 57 q 801 46 799 51 q 1110 43 874 42 l 1117 49 m 1033 124 l 1026 322 q 919 251 979 304 q 826 129 849 189 q 833 119 829 124 l 1033 124 m 499 696 q 461 756 499 739 q 389 771 444 763 q 379 731 379 754 q 398 672 379 699 q 446 644 417 644 q 483 659 467 644 q 499 696 499 674 m 343 989 l 157 989 q 157 793 149 886 q 270 873 204 804 q 343 989 336 942 m 690 564 q 630 601 654 574 q 582 657 606 629 q 472 554 569 619 q 563 496 533 538 q 589 456 569 482 q 690 564 596 501 m 794 342 q 796 357 796 350 q 768 442 796 411 q 714 467 746 467 q 661 418 661 467 q 772 340 661 340 q 794 342 783 340 m 375 1053 l 375 1060 q 83 1063 310 1064 l 76 1057 l 76 510 q 79 493 78 508 q 85 478 81 478 q 90 481 88 479 l 94 1051 l 375 1053 m 801 303 q 713 278 769 278 q 647 285 682 278 q 649 254 649 269 q 599 119 649 188 l 694 119 q 743 214 706 160 q 801 303 792 286 m 336 618 q 336 761 315 690 q 154 649 281 708 q 157 564 144 589 q 303 619 206 619 q 336 618 318 619 m 392 558 q 363 565 376 561 q 322 571 338 571 q 292 550 292 571 q 317 538 292 538 q 392 558 372 538 m 589 313 q 572 238 572 249 q 589 213 572 213 q 604 249 604 213 q 589 313 604 292 m 489 411 q 472 449 489 432 q 435 465 456 465 q 385 434 406 465 q 365 372 365 403 q 372 342 365 356 q 489 411 489 342 m 347 342 q 336 419 336 413 q 343 496 336 415 q 292 490 319 490 q 157 532 219 490 q 150 500 150 521 q 150 467 150 467 q 251 408 171 453 q 347 342 314 372 m 563 124 q 517 244 517 189 q 525 290 517 268 q 476 286 501 286 q 382 303 419 286 q 489 124 456 210 l 563 124 m 672 46 l 672 53 q 101 61 490 58 l 93 71 l 90 358 l 83 358 l 83 46 l 672 46 m 364 124 q 281 248 339 189 q 157 333 222 307 q 149 218 150 300 q 160 117 147 125 q 364 124 228 114 z "},"":{"ha":682,"x_min":124,"x_max":579,"o":"m 325 714 q 488 660 417 717 q 574 489 568 596 q 508 315 579 375 q 338 265 444 263 q 187 328 247 268 q 125 489 126 389 q 182 646 124 581 q 325 714 240 711 z "},"":{"ha":1096,"x_min":0,"x_max":0,"o":""}}}
